<svg width="766" height="751" viewBox="0 0 766 751" fill="none" xmlns="http://www.w3.org/2000/svg">
<rect width="766" height="751" fill="#1E1E1E"/>
<path d="M204.964 261.406C204.964 261.406 235.324 201.265 274.964 171.405C317.363 139.467 389.867 139.537 389.867 139.537" stroke="#2B2B2B" stroke-width="3"/>
<path d="M658.764 244.15C658.764 244.15 709.243 296.84 718.328 353.808C728.045 414.74 697.765 488.758 697.765 488.758" stroke="#2B2B2B" stroke-width="3"/>
<path d="M587.157 217.137C686.582 286.525 720.075 411.063 661.216 495.401C602.358 579.738 473.91 591.26 374.485 521.872C275.06 452.484 241.567 327.945 300.426 243.607C359.284 159.27 487.732 147.749 587.157 217.137Z" stroke="#FFAB40" stroke-width="3"/>
<path d="M426.611 615.296L420.526 613.072L415.185 611.64L409.388 609.274L401.754 606.074L395.213 602.918L387.929 598.969L382.936 596.789L377.488 593.676L370.78 589.446L364.36 585.075L355.936 578.796L348.317 572.702L342.018 567.117L334.004 559.483L328.509 554.083L323.53 549.008L317.808 543.142L311.979 535.595L306.605 528.981L301.124 520.686L297.299 515.048L292.394 506.472L288.341 500.368L286.519 496.638" stroke="#20C5BA" stroke-width="3"/>
<rect width="192" height="22" transform="translate(411.464 364.405)" fill="#FFAB40"/>
<rect width="233" height="22" transform="translate(366.464 339.405)" fill="#FFAB40"/>
<text fill="black" xml:space="preserve" style="white-space: pre" font-family="Inter" font-size="16" font-weight="600" letter-spacing="-0.3px"><tspan x="367.593" y="355.342">87% of businesses fail to scale &#10;</tspan><tspan x="363.437" y="380.342">due to broken digital experience&#10;</tspan><tspan x="392.728" y="405.342">we design systems that &#10;</tspan><tspan x="382.236" y="430.342">fix problem, &#38; Fast growing </tspan></text>
<path d="M693.964 482.405H707.964L705.464 494.405H690.464L693.964 482.405Z" fill="#20C5BA"/>
<rect y="272.154" width="307.186" height="292.154" rx="21.4316" fill="#2B2B2B"/>
<text transform="translate(21.4316 293.585)" fill="white" xml:space="preserve" style="white-space: pre" font-family="Urbanist" font-size="28.5754" font-weight="bold" letter-spacing="0em"><tspan x="0" y="27.0014">The Problem</tspan></text>
<g clip-path="url(#clip0_0_1)">
<path d="M35.7193 399.876C43.6102 399.876 50.0071 393.479 50.0071 385.589C50.0071 377.698 43.6102 371.301 35.7193 371.301C27.8284 371.301 21.4316 377.698 21.4316 385.589C21.4316 393.479 27.8284 399.876 35.7193 399.876Z" fill="#DD2E44"/>
</g>
<text transform="translate(62.5087 352.589)" fill="white" xml:space="preserve" style="white-space: pre" font-family="Nunito" font-size="16.0737" font-weight="500" letter-spacing="0em"><tspan x="0" y="16.2882">85% of businesses struggle </tspan><tspan x="0" y="38.2882">with poor website conversions </tspan><tspan x="0" y="60.2882">and zero visibility online.</tspan></text>
<g clip-path="url(#clip1_0_1)">
<path d="M40.8874 471.468C30.5734 471.468 21.4315 477.562 21.4315 484.595C21.4315 489.283 24.01 493.268 28.4638 495.612C32.9175 497.956 28.4638 495.846 28.4638 495.846C28.2294 498.894 26.3541 499.831 26.3541 499.831L22.1347 501.941L26.8229 501.941C32.6831 501.941 36.9024 499.362 38.7777 497.487L40.653 497.487C50.7325 497.487 58.9368 491.627 58.9368 484.36C58.9368 477.094 50.9669 471.468 40.8874 471.468ZM40.653 495.143L38.0745 495.143L37.6057 495.612C36.4336 496.784 33.8551 498.894 29.8702 499.597C30.5734 498.425 31.0422 497.018 31.0422 494.909L31.0422 494.205L30.339 493.971C26.1197 491.861 23.7756 488.58 23.7756 484.595C23.7756 478.969 31.9799 473.812 40.8874 473.812C49.5605 473.812 56.5927 478.5 56.5927 484.595C56.5927 490.22 49.3261 495.143 40.653 495.143Z" fill="white"/>
<path d="M35.496 485.532C35.496 486.154 35.249 486.75 34.8094 487.19C34.3698 487.629 33.7736 487.876 33.1519 487.876C32.5302 487.876 31.934 487.629 31.4944 487.19C31.0548 486.75 30.8078 486.154 30.8078 485.532C30.8078 484.911 31.0548 484.314 31.4944 483.875C31.934 483.435 32.5302 483.188 33.1519 483.188C33.7736 483.188 34.3698 483.435 34.8094 483.875C35.249 484.314 35.496 484.911 35.496 485.532ZM42.5282 485.532C42.5282 486.154 42.2813 486.75 41.8417 487.19C41.4021 487.629 40.8058 487.876 40.1842 487.876C39.5625 487.876 38.9662 487.629 38.5266 487.19C38.087 486.75 37.8401 486.154 37.8401 485.532C37.8401 484.911 38.087 484.314 38.5266 483.875C38.9662 483.435 39.5625 483.188 40.1842 483.188C40.8058 483.188 41.4021 483.435 41.8417 483.875C42.2813 484.314 42.5282 484.911 42.5282 485.532ZM49.5605 485.532C49.5605 486.154 49.3135 486.75 48.8739 487.19C48.4343 487.629 47.8381 487.876 47.2164 487.876C46.5947 487.876 45.9985 487.629 45.5589 487.19C45.1193 486.75 44.8723 486.154 44.8723 485.532C44.8723 484.911 45.1193 484.314 45.5589 483.875C45.9985 483.435 46.5947 483.188 47.2164 483.188C47.8381 483.188 48.4343 483.435 48.8739 483.875C49.3135 484.314 49.5605 484.911 49.5605 485.532Z" fill="white"/>
</g>
<text transform="translate(71.4385 432.876)" fill="white" xml:space="preserve" style="white-space: pre" font-family="Nunito" font-size="16.0737" font-weight="500" letter-spacing="0em"><tspan x="0" y="16.2882">&#x201c;We&#x2019;ve wasted months with </tspan><tspan x="0" y="38.2882">agencies who never </tspan><tspan x="0" y="60.2882">understood our actual goals.&#x201d; </tspan><tspan x="0" y="82.2882">&#x2013; [Frustrated Startup </tspan><tspan x="0" y="104.288">Founder]</tspan></text>
<rect x="399.271" y="7" width="288.407" height="267.447" rx="20.1214" fill="#19817A"/>
<text fill="white" xml:space="preserve" style="white-space: pre" font-family="Urbanist" font-size="26.8286" font-weight="bold" letter-spacing="0em"><tspan x="419.392" y="52.5115">The Result</tspan></text>
<path d="M440.299 116.801C440.299 117.093 440.183 117.373 439.977 117.579C439.771 117.786 439.491 117.902 439.199 117.902H434.797C434.506 117.902 434.226 117.786 434.019 117.579C433.813 117.373 433.697 117.093 433.697 116.801C433.697 116.509 433.813 116.229 434.019 116.023C434.226 115.817 434.506 115.701 434.797 115.701H439.199C439.491 115.701 439.771 115.817 439.977 116.023C440.183 116.229 440.299 116.509 440.299 116.801ZM436.998 101.396C437.325 101.396 437.644 101.299 437.915 101.117C438.187 100.936 438.398 100.678 438.523 100.377C438.648 100.075 438.681 99.7432 438.617 99.4231C438.553 99.1029 438.396 98.8088 438.165 98.5779C437.935 98.3471 437.64 98.1899 437.32 98.1262C437 98.0625 436.668 98.0952 436.367 98.2201C436.065 98.3451 435.807 98.5566 435.626 98.8281C435.444 99.0995 435.348 99.4186 435.348 99.7451C435.348 100.183 435.522 100.603 435.831 100.912C436.141 101.222 436.56 101.396 436.998 101.396ZM450.151 107.424L448.451 115.076C448.37 115.44 448.198 115.777 447.952 116.056C447.706 116.335 447.393 116.547 447.042 116.672C446.692 116.797 446.315 116.831 445.948 116.771C445.58 116.712 445.234 116.559 444.942 116.329L441.195 113.5H432.804L429.055 116.329C428.762 116.559 428.416 116.712 428.049 116.771C427.681 116.831 427.305 116.797 426.954 116.672C426.604 116.547 426.291 116.335 426.044 116.056C425.798 115.777 425.627 115.44 425.546 115.076L423.846 107.424C423.774 107.096 423.777 106.756 423.856 106.429C423.936 106.102 424.088 105.798 424.302 105.539L428.231 100.826C428.363 99.0944 428.76 97.3931 429.41 95.7823C431.184 91.334 434.361 88.5431 435.65 87.55C436.036 87.2511 436.51 87.0889 436.998 87.0889C437.486 87.0889 437.96 87.2511 438.346 87.55C439.631 88.5431 442.812 91.334 444.587 95.7823C445.236 97.3931 445.634 99.0944 445.766 100.826L449.694 105.539C449.908 105.798 450.061 106.102 450.14 106.429C450.219 106.756 450.223 107.096 450.151 107.424ZM433.068 111.299H440.928C443.833 106.136 444.376 101.192 442.543 96.598C440.925 92.543 437.891 89.9791 436.998 89.2914C436.103 89.9791 433.068 92.543 431.451 96.598C429.62 101.192 430.163 106.136 433.068 111.299ZM431.005 112.104C429.524 109.412 428.626 106.767 428.309 104.169L425.994 106.947L427.694 114.6L427.719 114.582L431.005 112.104ZM448.002 106.947L445.687 104.169C445.374 106.762 444.477 109.407 442.997 112.104L446.277 114.58L446.302 114.598L448.002 106.947Z" fill="white"/>
<text fill="white" xml:space="preserve" style="white-space: pre" font-family="Nunito" font-size="15.0911" font-weight="500" letter-spacing="0em"><tspan x="473.887" y="98.0614">300% more traffic in 60 </tspan><tspan x="466.342" y="119.061">days. </tspan><tspan x="513.045" y="119.061"> 4x conversion rate.</tspan></text>
<text fill="white" xml:space="preserve" style="white-space: pre" font-family="Nunito" font-size="15.0911" font-weight="900" letter-spacing="0em"><tspan x="505.499" y="119.061">&#x2191;</tspan></text>
<text fill="white" xml:space="preserve" style="white-space: pre" font-family="Nunito" font-size="15.0911" font-weight="900" letter-spacing="0em"><tspan x="466.342" y="98.0614">&#x2191;</tspan></text>
<path d="M448.002 168.088C447.305 154.395 426.691 154.395 425.994 168.088M441.4 149.015C441.4 150.182 440.936 151.302 440.111 152.127C439.285 152.953 438.166 153.416 436.998 153.416C435.831 153.416 434.711 152.953 433.886 152.127C433.06 151.302 432.597 150.182 432.597 149.015C432.597 147.847 433.06 146.728 433.886 145.902C434.711 145.077 435.831 144.613 436.998 144.613C438.166 144.613 439.285 145.077 440.111 145.902C440.936 146.728 441.4 147.847 441.4 149.015Z" stroke="white" stroke-width="2.20078" stroke-linecap="round" stroke-linejoin="round"/>
<text fill="white" xml:space="preserve" style="white-space: pre" font-family="Nunito" font-size="15.0911" font-weight="500" letter-spacing="0em"><tspan x="547.338" y="160.582"> Craftiko</tspan></text>
<text fill="white" xml:space="preserve" style="white-space: pre" font-family="Nunito" font-size="15.0911" font-weight="bold" letter-spacing="0em"><tspan x="466.342" y="160.582">Real Client:</tspan></text>
<path d="M436.998 188.838L440.446 191.479L444.701 190.892L446.315 194.927L450.35 196.541L449.763 200.796L452.404 204.244L449.763 207.691L450.35 211.946L446.315 213.56L444.701 217.595L440.446 217.008L436.998 219.649L433.55 217.008L429.295 217.595L427.682 213.56L423.647 211.946L424.234 207.691L421.593 204.244L424.234 200.796L423.647 196.541L427.682 194.927L429.295 190.892L433.55 191.479L436.998 188.838Z" fill="white"/>
<path d="M443.915 196.698L433.938 206.675L429.83 202.567L427.776 204.621L433.938 210.783L445.969 198.752L443.915 196.698Z" fill="#19817A"/>
<text fill="white" xml:space="preserve" style="white-space: pre" font-family="Nunito" font-size="15.0911" font-weight="bold" letter-spacing="0em"><tspan x="466.342" y="209.209">&#x201c;</tspan><tspan x="643.264" y="209.209">&#x201d;</tspan></text>
<text fill="white" xml:space="preserve" style="white-space: pre" font-family="Nunito" font-size="15.0911" font-weight="500" letter-spacing="0em"><tspan x="473.033" y="209.209">Best ROI we&#x2019;ve ever had.</tspan></text>
<text fill="white" xml:space="preserve" style="white-space: pre" font-family="Nunito" font-size="15.0911" font-weight="bold" letter-spacing="0em"><tspan x="419.392" y="249.052">CEO, Craftiko</tspan></text>
<rect x="429.178" y="498.392" width="299.75" height="252.419" rx="20.9128" fill="#20C5BA"/>
<text fill="white" xml:space="preserve" style="white-space: pre" font-family="Urbanist" font-size="27.8837" font-weight="bold" letter-spacing="0em"><tspan x="450.091" y="545.564">The Solution</tspan></text>
<path d="M479.699 613.865C485.724 606.225 484.097 598.65 479.769 595.995C475.68 593.487 472.11 594.498 469.966 596.108L468.389 597.288M479.699 613.865C478.254 615.7 476.367 617.536 473.97 619.309C471.614 621.055 470.436 621.927 468.389 621.927C466.343 621.927 465.166 621.055 462.808 619.309C450.429 610.148 451.643 599.287 457.009 595.995C461.099 593.487 464.668 594.498 466.812 596.108L468.389 597.288M479.699 613.865L471.274 604.307C471.107 604.118 470.878 603.994 470.628 603.958C470.378 603.922 470.124 603.975 469.909 604.109L466.576 606.192C465.922 606.605 465.134 606.75 464.376 606.596C463.618 606.441 462.949 606 462.509 605.364C462.069 604.727 461.893 603.946 462.016 603.182C462.139 602.418 462.553 601.732 463.171 601.267L468.389 597.288" stroke="white" stroke-width="2.6141" stroke-linecap="round" stroke-linejoin="round"/>
<text fill="white" xml:space="preserve" style="white-space: pre" font-family="Nunito" font-size="15.6846" font-weight="500" letter-spacing="0em"><tspan x="498.887" y="592.363">We approach it like a system: </tspan><tspan x="498.887" y="613.363">first we audit, then we build, </tspan><tspan x="498.887" y="634.363">and finally &#x2014; we optimize.</tspan></text>
<path d="M468.389 683.38C468.086 683.38 467.795 683.26 467.58 683.045L464.149 679.614C464.043 679.508 463.958 679.382 463.901 679.244C463.843 679.105 463.813 678.956 463.813 678.806C463.813 678.655 463.843 678.507 463.901 678.368C463.958 678.229 464.043 678.103 464.149 677.997L467.58 674.566C467.686 674.459 467.812 674.375 467.951 674.317C468.09 674.259 468.239 674.229 468.389 674.229C468.539 674.229 468.688 674.259 468.827 674.317C468.966 674.375 469.092 674.459 469.198 674.566L472.629 677.997C472.735 678.103 472.82 678.229 472.877 678.368C472.935 678.507 472.965 678.655 472.965 678.806C472.965 678.956 472.935 679.105 472.877 679.244C472.82 679.382 472.735 679.508 472.629 679.614L469.198 683.045C468.983 683.26 468.692 683.38 468.389 683.38ZM466.575 678.806L468.389 680.62L470.203 678.806L468.389 676.992L466.575 678.806ZM475.251 676.518C474.948 676.518 474.657 676.398 474.442 676.183L471.011 672.752C470.905 672.646 470.82 672.52 470.763 672.382C470.705 672.243 470.675 672.094 470.675 671.944C470.675 671.793 470.705 671.645 470.763 671.506C470.82 671.367 470.905 671.241 471.011 671.135L474.442 667.704C474.548 667.597 474.674 667.513 474.813 667.455C474.952 667.397 475.101 667.367 475.251 667.367C475.401 667.367 475.55 667.397 475.689 667.455C475.828 667.513 475.954 667.597 476.06 667.704L479.491 671.135C479.597 671.241 479.682 671.367 479.739 671.506C479.797 671.645 479.827 671.793 479.827 671.944C479.827 672.094 479.797 672.243 479.739 672.382C479.682 672.52 479.597 672.646 479.491 672.752L476.06 676.183C475.845 676.398 475.554 676.518 475.251 676.518ZM473.437 671.944L475.251 673.758L477.065 671.944L475.251 670.13L473.437 671.944ZM468.389 669.656C468.086 669.656 467.795 669.536 467.58 669.321L464.149 665.89C464.043 665.784 463.958 665.658 463.901 665.52C463.843 665.381 463.813 665.232 463.813 665.082C463.813 664.931 463.843 664.783 463.901 664.644C463.958 664.505 464.043 664.379 464.149 664.273L467.58 660.842C467.686 660.735 467.812 660.651 467.951 660.593C468.09 660.535 468.239 660.505 468.389 660.505C468.539 660.505 468.688 660.535 468.827 660.593C468.966 660.651 469.092 660.735 469.198 660.842L472.629 664.273C472.735 664.379 472.82 664.505 472.877 664.644C472.935 664.783 472.965 664.931 472.965 665.082C472.965 665.232 472.935 665.381 472.877 665.52C472.82 665.658 472.735 665.784 472.629 665.89L469.198 669.321C468.983 669.536 468.692 669.656 468.389 669.656ZM466.575 665.082L468.389 666.896L470.203 665.082L468.389 663.268L466.575 665.082ZM461.527 676.518C461.224 676.518 460.933 676.398 460.718 676.183L457.287 672.752C457.181 672.646 457.096 672.52 457.039 672.382C456.981 672.243 456.951 672.094 456.951 671.944C456.951 671.793 456.981 671.645 457.039 671.506C457.096 671.367 457.181 671.241 457.287 671.135L460.718 667.704C460.824 667.597 460.95 667.513 461.089 667.455C461.228 667.397 461.377 667.367 461.527 667.367C461.677 667.367 461.826 667.397 461.965 667.455C462.104 667.513 462.23 667.597 462.336 667.704L465.767 671.135C465.873 671.241 465.958 671.367 466.015 671.506C466.073 671.645 466.103 671.793 466.103 671.944C466.103 672.094 466.073 672.243 466.015 672.382C465.958 672.52 465.873 672.646 465.767 672.752L462.336 676.183C462.121 676.398 461.83 676.518 461.527 676.518ZM459.713 671.944L461.527 673.758L463.341 671.944L461.527 670.13L459.713 671.944Z" fill="white"/>
<path d="M468.389 654.789C468.187 654.789 467.988 654.842 467.813 654.944L454.089 662.95C453.916 663.051 453.773 663.195 453.673 663.368C453.574 663.542 453.521 663.738 453.521 663.938V679.95C453.521 680.149 453.574 680.346 453.673 680.519C453.773 680.693 453.916 680.837 454.089 680.938L467.813 688.943C467.988 689.045 468.187 689.099 468.389 689.099C468.592 689.099 468.791 689.045 468.966 688.943L481.546 681.604L480.393 679.629L468.389 686.631L455.809 679.293V664.596L468.389 657.257L480.97 664.595V673.088H483.257V663.938C483.257 663.738 483.205 663.542 483.105 663.368C483.006 663.195 482.862 663.051 482.69 662.95L468.966 654.944C468.791 654.842 468.592 654.789 468.389 654.789Z" fill="white"/>
<text fill="white" xml:space="preserve" style="white-space: pre" font-family="Nunito" font-size="15.6846" font-weight="bold" letter-spacing="0em"><tspan x="498.887" y="677.104">Services Synced:</tspan></text>
<rect x="450.09" y="702.442" width="54.9128" height="27.4564" rx="13.7282" fill="#2B2B2B"/>
<text fill="white" xml:space="preserve" style="white-space: pre" font-family="Nunito" font-size="12.1991" font-weight="bold" letter-spacing="0em"><tspan x="460.547" y="720.183">UI/UX</tspan></text>
<rect x="508.489" y="702.442" width="43.9128" height="27.4564" rx="13.7282" fill="#2B2B2B"/>
<text fill="white" xml:space="preserve" style="white-space: pre" font-family="Nunito" font-size="12.1991" font-weight="bold" letter-spacing="0em"><tspan x="518.945" y="720.183">Dev</tspan></text>
<rect x="555.887" y="702.442" width="45.9128" height="27.4564" rx="13.7282" fill="#2B2B2B"/>
<text fill="white" xml:space="preserve" style="white-space: pre" font-family="Nunito" font-size="12.1991" font-weight="bold" letter-spacing="0em"><tspan x="566.343" y="720.183">SEO</tspan></text>
<rect x="605.285" y="702.442" width="43.9128" height="27.4564" rx="13.7282" fill="#2B2B2B"/>
<text fill="white" xml:space="preserve" style="white-space: pre" font-family="Nunito" font-size="12.1991" font-weight="bold" letter-spacing="0em"><tspan x="615.742" y="720.183">Ads</tspan></text>
<g clip-path="url(#clip2_0_1)">
<path d="M393.096 122.405L391.814 136.23L386.549 131.858L390.921 137.124L377.096 138.405L390.921 139.687L386.549 144.953L391.814 140.581L393.096 154.405L394.378 140.581L399.643 144.953L395.272 139.687L409.096 138.405L395.272 137.124L399.643 131.858L394.378 136.23L393.096 122.405Z" fill="#FB9639"/>
</g>
<g clip-path="url(#clip3_0_1)">
<path d="M415.431 617.71C415.423 617.696 415.417 617.682 415.41 617.667C415.262 617.331 415.34 616.939 415.608 616.687L419.66 612.866L418.073 607.259C417.973 606.904 418.108 606.526 418.409 606.314C418.71 606.103 419.112 606.104 419.411 606.319L432.111 615.416C432.406 615.626 432.537 616.001 432.44 616.351C432.343 616.702 432.036 616.954 431.674 616.982L416.269 618.179C415.918 618.207 415.589 618.02 415.431 617.71Z" fill="#FB9639"/>
</g>
<g clip-path="url(#clip4_0_1)">
<path d="M692.972 276.337C692.971 276.353 692.969 276.368 692.968 276.385C692.926 276.749 692.659 277.048 692.301 277.13L686.872 278.374L685.401 284.012C685.308 284.368 685 284.627 684.634 284.657C684.267 284.686 683.921 284.482 683.772 284.145L677.426 269.871C677.278 269.54 677.354 269.15 677.615 268.897C677.877 268.644 678.269 268.582 678.596 268.741L692.486 275.508C692.803 275.662 692.992 275.99 692.972 276.337Z" fill="#FB9639"/>
</g>
<ellipse cx="206.964" cy="258.905" rx="7.5" ry="4.5" fill="#19817A"/>
<path d="M212.506 103.314L202.606 93.4139C202.415 93.2294 202.262 93.0087 202.157 92.7647C202.053 92.5207 201.997 92.2583 201.995 91.9927C201.993 91.7272 202.043 91.4638 202.144 91.218C202.244 90.9722 202.393 90.7489 202.581 90.5611C202.769 90.3733 202.992 90.2248 203.238 90.1243C203.483 90.0237 203.747 89.9731 204.012 89.9754C204.278 89.9777 204.54 90.0329 204.784 90.1377C205.028 90.2425 205.249 90.3949 205.434 90.5859L216.748 101.9C217.122 102.275 217.333 102.784 217.333 103.314C217.333 103.844 217.122 104.353 216.748 104.728L205.434 116.042C205.249 116.233 205.028 116.385 204.784 116.49C204.54 116.595 204.278 116.65 204.012 116.652C203.747 116.655 203.483 116.604 203.238 116.504C202.992 116.403 202.769 116.254 202.581 116.067C202.393 115.879 202.244 115.656 202.144 115.41C202.043 115.164 201.993 114.901 201.995 114.635C201.997 114.37 202.053 114.107 202.157 113.863C202.262 113.619 202.415 113.398 202.606 113.214L212.506 103.314V103.314ZM220.02 112H236.02C236.55 112 237.059 112.211 237.434 112.586C237.809 112.961 238.02 113.469 238.02 114C238.02 114.53 237.809 115.039 237.434 115.414C237.059 115.789 236.55 116 236.02 116H220.02C219.489 116 218.98 115.789 218.605 115.414C218.23 115.039 218.02 114.53 218.02 114C218.02 113.469 218.23 112.961 218.605 112.586C218.98 112.211 219.489 112 220.02 112V112Z" fill="#CBD5E1"/>
<path d="M146.83 29.5333C145.96 28.9568 144.937 28.655 143.893 28.6668C142.849 28.6787 141.833 29.0038 140.977 29.5999L114.76 47.8666C113.36 48.8399 112.527 50.4333 112.527 52.1399V71.8166C112.527 73.5666 113.407 75.1966 114.867 76.1599L141.513 93.7766C142.365 94.3398 143.364 94.6401 144.385 94.6401C145.406 94.6401 146.405 94.3398 147.257 93.7766L174.433 75.8233C175.893 74.8566 176.77 73.2233 176.77 71.4766V52.1433C176.77 50.3966 175.893 48.7666 174.437 47.7999L146.83 29.5333ZM167.13 50.8433L157.083 57.5866L147.663 50.7366L147.603 37.2633L167.127 50.8433H167.13ZM140.79 37.2766V50.4666L131.133 57.2133L121.51 50.7566L140.79 37.2766V37.2766ZM118.867 57.2533L125.1 61.4299L118.867 65.7899V57.2566V57.2533ZM140.95 85.3633L121.513 72.3333L131.223 65.5433L140.957 72.0699V85.3699L140.95 85.3633ZM137.267 61.3199L143.56 56.9199L150.893 61.7366L144.393 66.1033L137.267 61.3199ZM147.823 85.3633V72.0633L157.123 65.8299L167.133 72.4133L147.823 85.3633V85.3633ZM169.907 66.0133L163.307 61.6799L169.907 57.2499V66.0166V66.0133Z" fill="#F1F5F9"/>
<path d="M240 41.3333C239.293 41.3333 238.614 41.0523 238.114 40.5522C237.614 40.0521 237.333 39.3739 237.333 38.6666C237.333 37.9594 237.614 37.2811 238.114 36.781C238.614 36.2809 239.293 36 240 36C242.408 35.9988 244.771 35.3457 246.837 34.1098C248.904 32.874 250.597 31.1015 251.737 28.9807C252.878 26.8599 253.422 24.4699 253.314 22.0645C253.205 19.659 252.447 17.3279 251.12 15.3186C249.793 13.3094 247.946 11.697 245.777 10.6526C243.607 9.60827 241.195 9.17096 238.797 9.38713C236.399 9.6033 234.104 10.4649 232.156 11.8804C230.208 13.2959 228.68 15.2125 227.733 17.4266L225.813 21.9226L221.168 20.3973C220.069 20.0373 218.904 19.9199 217.755 20.0534C216.606 20.1868 215.5 20.5678 214.513 21.1701C213.525 21.7724 212.68 22.5817 212.035 23.5422C211.391 24.5026 210.962 25.5915 210.779 26.7336C210.596 27.8758 210.663 29.044 210.975 30.1579C211.287 31.2717 211.837 32.3046 212.586 33.1855C213.336 34.0663 214.268 34.774 215.318 35.2599C216.367 35.7458 217.51 35.9983 218.667 36H224C224.707 36 225.386 36.2809 225.886 36.781C226.386 37.2811 226.667 37.9594 226.667 38.6666C226.667 39.3739 226.386 40.0521 225.886 40.5522C225.386 41.0523 224.707 41.3333 224 41.3333H218.667C216.738 41.3322 214.833 40.9128 213.082 40.1039C211.331 39.295 209.777 38.1159 208.526 36.648C207.275 35.1801 206.357 33.4583 205.836 31.6014C205.315 29.7445 205.204 27.7967 205.508 25.8923C205.813 23.988 206.528 22.1724 207.602 20.5709C208.677 18.9694 210.086 17.6201 211.733 16.6161C213.379 15.612 215.224 14.9771 217.14 14.7552C219.056 14.5333 220.997 14.7296 222.829 15.3306C224.522 11.3776 227.526 8.12984 231.336 6.13581C235.145 4.14178 239.527 3.52374 243.739 4.38607C247.952 5.2484 251.738 7.53825 254.457 10.8689C257.177 14.1995 258.664 18.3667 258.667 22.6666C258.667 27.6173 256.7 32.3653 253.199 35.866C249.699 39.3666 244.951 41.3333 240 41.3333ZM233.893 33.504C235.277 34.032 235.992 35.64 235.488 37.0933L231.84 47.6266C231.333 49.08 229.805 49.8293 228.421 49.2986C227.037 48.7706 226.325 47.1626 226.829 45.7093L230.477 35.176C230.979 33.7226 232.509 32.9733 233.893 33.504V33.504ZM238.245 44.0346C239.629 44.5626 240.341 46.1706 239.837 47.624L236.189 58.1573C235.688 59.6106 234.157 60.36 232.773 59.8293C231.389 59.3013 230.675 57.6933 231.179 56.24L234.827 45.7066C235.333 44.2533 236.861 43.504 238.245 44.0346V44.0346ZM229.333 43.864H237.333C238.805 43.864 240 45.1173 240 46.6666C240 48.2133 238.805 49.4666 237.333 49.4666H229.333C227.861 49.4666 226.667 48.2133 226.667 46.6666C226.667 45.12 227.861 43.8666 229.333 43.8666V43.864Z" fill="#E2E8F0"/>
<defs>
<clipPath id="clip0_0_1">
<rect width="28.5754" height="28.5754" fill="white" transform="translate(21.4316 371.301)"/>
</clipPath>
<clipPath id="clip1_0_1">
<rect width="37.5053" height="37.5053" fill="white" transform="translate(21.4316 469.124)"/>
</clipPath>
<clipPath id="clip2_0_1">
<rect width="32" height="32" fill="white" transform="translate(377.096 122.405)"/>
</clipPath>
<clipPath id="clip3_0_1">
<rect width="16" height="16" fill="white" transform="translate(425.596 602.419) rotate(62.9951)"/>
</clipPath>
<clipPath id="clip4_0_1">
<rect width="16" height="16" fill="white" transform="translate(676.464 284.377) rotate(-86.5876)"/>
</clipPath>
</defs>
</svg>
