<svg xmlns="http://www.w3.org/2000/svg" fill="none" viewBox="549.6532094240837 0 612.5340314136125 1001" style="max-height: 500px" width="612.5340314136125" height="1001">
<path fill="#19817A" d="M600.067 946.477C408.75 1056.93 164.114 991.384 53.6566 800.067C-56.8003 608.75 8.74977 364.114 200.067 253.657L546.477 53.6566C737.794 -56.8003 982.43 8.74977 1092.89 200.067C1203.34 391.384 1137.79 636.02 946.477 746.477L600.067 946.477Z"/>
<circle fill="#38BDF8" r="49.5" cy="825.5" cx="644.157"/>
<g filter="url(#filter0_dd_2012_154)">
<g clip-path="url(#clip0_2012_154)">
<path fill="#D5E8E7" d="M633.657 110H1023.66V763H633.657V110Z"/>
<g data-figma-bg-blur-radius="3.38063" filter="url(#filter1_dd_2012_154)">
<rect shape-rendering="crispEdges" fill="white" rx="15.2222" height="539.212" width="328" y="150" x="664.657"/>
<rect shape-rendering="crispEdges" stroke-width="2" stroke="#20C5BA" rx="14.2222" height="537.212" width="326" y="151" x="665.657"/>
<path fill="#2B2B2B" d="M698.482 195V173.702H706.089C707.245 173.702 708.289 173.991 709.223 174.569C710.166 175.147 710.911 175.923 711.459 176.897C712.006 177.87 712.28 178.94 712.28 180.107C712.28 181.303 711.996 182.389 711.428 183.362C710.871 184.326 710.12 185.096 709.177 185.675C708.234 186.242 707.204 186.526 706.089 186.526H702.194V195H698.482ZM702.194 182.815H705.693C706.221 182.815 706.702 182.683 707.138 182.419C707.574 182.155 707.919 181.8 708.173 181.354C708.437 180.908 708.568 180.411 708.568 179.863C708.568 179.305 708.437 178.803 708.173 178.357C707.919 177.911 707.574 177.556 707.138 177.292C706.702 177.029 706.221 176.897 705.693 176.897H702.194V182.815ZM714.661 195L714.646 179.787H718.358L718.373 181.141C718.89 180.593 719.509 180.162 720.229 179.848C720.949 179.523 721.725 179.361 722.557 179.361C723.114 179.361 723.672 179.442 724.23 179.605L722.77 183.347C722.384 183.195 721.999 183.119 721.613 183.119C721.015 183.119 720.467 183.266 719.97 183.56C719.484 183.844 719.093 184.234 718.799 184.731C718.515 185.218 718.373 185.761 718.373 186.359V195H714.661ZM731.917 195.396C730.518 195.396 729.24 195.035 728.084 194.315C726.938 193.595 726.02 192.632 725.33 191.425C724.651 190.208 724.311 188.864 724.311 187.394C724.311 186.278 724.509 185.238 724.904 184.275C725.3 183.301 725.842 182.449 726.532 181.719C727.232 180.979 728.043 180.401 728.966 179.985C729.889 179.569 730.873 179.361 731.917 179.361C733.317 179.361 734.59 179.721 735.736 180.441C736.892 181.161 737.81 182.13 738.489 183.347C739.179 184.564 739.524 185.913 739.524 187.394C739.524 188.499 739.326 189.534 738.93 190.497C738.535 191.46 737.987 192.312 737.287 193.053C736.598 193.783 735.791 194.356 734.868 194.772C733.956 195.188 732.972 195.396 731.917 195.396ZM731.917 191.684C732.658 191.684 733.322 191.486 733.91 191.09C734.498 190.695 734.96 190.172 735.294 189.523C735.639 188.874 735.812 188.164 735.812 187.394C735.812 186.603 735.634 185.882 735.279 185.233C734.934 184.574 734.463 184.052 733.864 183.666C733.276 183.271 732.627 183.073 731.917 183.073C731.187 183.073 730.528 183.271 729.94 183.666C729.351 184.062 728.885 184.589 728.54 185.249C728.195 185.908 728.023 186.623 728.023 187.394C728.023 188.195 728.2 188.92 728.555 189.569C728.91 190.218 729.382 190.735 729.97 191.121C730.568 191.496 731.217 191.684 731.917 191.684ZM739.117 202.606V198.894C739.695 198.894 740.218 198.758 740.684 198.484C741.151 198.22 741.521 197.855 741.795 197.388C742.068 196.932 742.205 196.42 742.205 195.852V179.787H745.917V195.852C745.917 197.089 745.613 198.22 745.005 199.244C744.406 200.269 743.59 201.085 742.555 201.694C741.531 202.302 740.385 202.606 739.117 202.606ZM744.092 177.825C743.544 177.825 743.083 177.647 742.707 177.292C742.332 176.927 742.145 176.471 742.145 175.923C742.145 175.386 742.332 174.934 742.707 174.569C743.083 174.204 743.539 174.022 744.077 174.022C744.614 174.022 745.065 174.204 745.43 174.569C745.806 174.934 745.993 175.386 745.993 175.923C745.993 176.471 745.811 176.927 745.446 177.292C745.081 177.647 744.629 177.825 744.092 177.825ZM755.895 195.396C754.496 195.396 753.218 195.035 752.062 194.315C750.916 193.595 749.998 192.627 749.308 191.41C748.629 190.193 748.289 188.849 748.289 187.378C748.289 186.273 748.487 185.238 748.882 184.275C749.278 183.301 749.82 182.449 750.51 181.719C751.21 180.979 752.021 180.401 752.944 179.985C753.867 179.569 754.851 179.361 755.895 179.361C757.082 179.361 758.167 179.615 759.151 180.122C760.145 180.619 760.986 181.303 761.676 182.176C762.366 183.048 762.868 184.042 763.182 185.157C763.497 186.273 763.568 187.439 763.395 188.656H752.275C752.417 189.224 752.65 189.736 752.974 190.193C753.299 190.639 753.71 190.999 754.207 191.273C754.704 191.537 755.266 191.673 755.895 191.684C756.544 191.694 757.133 191.542 757.66 191.227C758.197 190.903 758.644 190.467 758.999 189.919L762.787 190.801C762.168 192.15 761.245 193.256 760.018 194.118C758.791 194.97 757.417 195.396 755.895 195.396ZM752.153 185.872H759.638C759.526 185.264 759.288 184.716 758.923 184.229C758.568 183.732 758.126 183.337 757.599 183.043C757.072 182.749 756.504 182.602 755.895 182.602C755.287 182.602 754.724 182.749 754.207 183.043C753.689 183.327 753.248 183.717 752.883 184.214C752.528 184.701 752.285 185.254 752.153 185.872ZM775.362 190.421L778.709 192.231C778.009 193.185 777.131 193.95 776.077 194.528C775.022 195.106 773.871 195.396 772.623 195.396C771.224 195.396 769.946 195.035 768.79 194.315C767.644 193.595 766.726 192.632 766.036 191.425C765.357 190.208 765.017 188.864 765.017 187.394C765.017 186.278 765.215 185.238 765.61 184.275C766.006 183.301 766.548 182.449 767.238 181.719C767.938 180.979 768.749 180.401 769.672 179.985C770.595 179.569 771.579 179.361 772.623 179.361C773.871 179.361 775.022 179.65 776.077 180.228C777.131 180.806 778.009 181.582 778.709 182.556L775.362 184.351C775.007 183.945 774.586 183.631 774.099 183.408C773.622 183.185 773.13 183.073 772.623 183.073C771.893 183.073 771.234 183.276 770.646 183.682C770.057 184.077 769.591 184.605 769.246 185.264C768.901 185.913 768.729 186.623 768.729 187.394C768.729 188.154 768.901 188.864 769.246 189.523C769.591 190.172 770.057 190.695 770.646 191.09C771.234 191.486 771.893 191.684 772.623 191.684C773.151 191.684 773.653 191.572 774.129 191.349C774.606 191.116 775.017 190.806 775.362 190.421ZM789.594 183.499H786.642V195H782.931V183.499H780.679V179.787H782.931V175.01H786.642V179.787H789.594V183.499ZM799.653 195V173.702H803.365V191.288H812.234V195H799.653ZM815.579 179.787H819.291V195H815.579V179.787ZM817.466 177.825C816.918 177.825 816.457 177.647 816.081 177.292C815.706 176.927 815.519 176.471 815.519 175.923C815.519 175.386 815.706 174.934 816.081 174.569C816.457 174.204 816.913 174.022 817.451 174.022C817.988 174.022 818.439 174.204 818.805 174.569C819.18 174.934 819.367 175.386 819.367 175.923C819.367 176.471 819.185 176.927 818.82 177.292C818.455 177.647 818.003 177.825 817.466 177.825ZM831.889 195H827.097L821.56 179.772H825.515L829.501 190.725L833.472 179.772H837.427L831.889 195ZM845.776 195.396C844.376 195.396 843.098 195.035 841.942 194.315C840.796 193.595 839.878 192.627 839.189 191.41C838.509 190.193 838.169 188.849 838.169 187.378C838.169 186.273 838.367 185.238 838.763 184.275C839.158 183.301 839.701 182.449 840.39 181.719C841.09 180.979 841.901 180.401 842.824 179.985C843.747 179.569 844.731 179.361 845.776 179.361C846.962 179.361 848.047 179.615 849.031 180.122C850.025 180.619 850.867 181.303 851.557 182.176C852.246 183.048 852.748 184.042 853.063 185.157C853.377 186.273 853.448 187.439 853.276 188.656H842.155C842.297 189.224 842.53 189.736 842.855 190.193C843.179 190.639 843.59 190.999 844.087 191.273C844.584 191.537 845.147 191.673 845.776 191.684C846.425 191.694 847.013 191.542 847.54 191.227C848.078 190.903 848.524 190.467 848.879 189.919L852.667 190.801C852.048 192.15 851.126 193.256 849.898 194.118C848.671 194.97 847.297 195.396 845.776 195.396ZM842.033 185.872H849.518C849.406 185.264 849.168 184.716 848.803 184.229C848.448 183.732 848.007 183.337 847.48 183.043C846.952 182.749 846.384 182.602 845.776 182.602C845.167 182.602 844.604 182.749 844.087 183.043C843.57 183.327 843.129 183.717 842.764 184.214C842.409 184.701 842.165 185.254 842.033 185.872ZM868.269 195L862.823 173.702H866.657L870.369 188.261L874.081 173.702H877.473L881.185 188.261L884.882 173.702H888.716L883.3 195H879.086L875.769 182.1L872.499 195H868.269ZM890.514 179.787H894.226V195H890.514V179.787ZM892.401 177.825C891.853 177.825 891.392 177.647 891.016 177.292C890.641 176.927 890.454 176.471 890.454 175.923C890.454 175.386 890.641 174.934 891.016 174.569C891.392 174.204 891.848 174.022 892.386 174.022C892.923 174.022 893.374 174.204 893.74 174.569C894.115 174.934 894.302 175.386 894.302 175.923C894.302 176.471 894.12 176.927 893.755 177.292C893.39 177.647 892.938 177.825 892.401 177.825ZM909.027 172.181H912.739V195H909.027V193.098C908.541 193.778 907.927 194.331 907.187 194.757C906.446 195.183 905.589 195.396 904.616 195.396C903.51 195.396 902.476 195.188 901.512 194.772C900.549 194.356 899.697 193.783 898.957 193.053C898.226 192.312 897.653 191.46 897.238 190.497C896.822 189.534 896.614 188.499 896.614 187.394C896.614 186.288 896.822 185.254 897.238 184.29C897.653 183.327 898.226 182.48 898.957 181.75C899.697 181.009 900.549 180.431 901.512 180.015C902.476 179.6 903.51 179.392 904.616 179.392C905.589 179.392 906.446 179.605 907.187 180.031C907.927 180.446 908.541 180.999 909.027 181.689V172.181ZM904.661 191.821C905.452 191.821 906.152 191.623 906.761 191.227C907.369 190.832 907.846 190.299 908.191 189.63C908.536 188.95 908.708 188.205 908.708 187.394C908.708 186.572 908.536 185.827 908.191 185.157C907.846 184.478 907.364 183.94 906.746 183.545C906.137 183.149 905.442 182.951 904.661 182.951C903.88 182.951 903.165 183.154 902.516 183.56C901.877 183.955 901.365 184.488 900.98 185.157C900.605 185.827 900.417 186.572 900.417 187.394C900.417 188.215 900.61 188.961 900.995 189.63C901.381 190.299 901.893 190.832 902.532 191.227C903.181 191.623 903.891 191.821 904.661 191.821ZM927.444 179.787H931.156V195.289C931.156 196.384 930.933 197.378 930.487 198.271C930.041 199.173 929.432 199.944 928.661 200.583C927.891 201.232 927.008 201.729 926.014 202.074C925.02 202.429 923.976 202.606 922.88 202.606C921.816 202.606 920.791 202.388 919.807 201.952C918.824 201.516 917.951 200.918 917.191 200.157C916.44 199.407 915.867 198.55 915.472 197.586L918.864 196.05C919.067 196.607 919.371 197.094 919.777 197.51C920.193 197.936 920.67 198.266 921.207 198.499C921.745 198.742 922.302 198.864 922.88 198.864C923.469 198.864 924.032 198.783 924.569 198.621C925.117 198.458 925.609 198.22 926.045 197.906C926.481 197.601 926.821 197.226 927.064 196.78C927.318 196.344 927.444 195.847 927.444 195.289V193.144C926.968 193.813 926.369 194.356 925.649 194.772C924.929 195.188 924.097 195.396 923.154 195.396C922.059 195.396 921.035 195.188 920.081 194.772C919.128 194.356 918.286 193.783 917.556 193.053C916.836 192.312 916.268 191.46 915.852 190.497C915.446 189.534 915.244 188.499 915.244 187.394C915.244 186.288 915.446 185.254 915.852 184.29C916.268 183.327 916.836 182.48 917.556 181.75C918.286 181.009 919.128 180.431 920.081 180.015C921.035 179.6 922.059 179.392 923.154 179.392C924.097 179.392 924.929 179.6 925.649 180.015C926.369 180.421 926.968 180.959 927.444 181.628V179.787ZM923.2 191.821C923.981 191.821 924.67 191.623 925.269 191.227C925.877 190.822 926.354 190.284 926.699 189.615C927.044 188.935 927.216 188.195 927.216 187.394C927.216 186.582 927.039 185.842 926.684 185.173C926.339 184.503 925.862 183.966 925.254 183.56C924.655 183.154 923.971 182.951 923.2 182.951C922.439 182.951 921.745 183.154 921.116 183.56C920.487 183.955 919.985 184.488 919.61 185.157C919.234 185.827 919.047 186.572 919.047 187.394C919.047 188.215 919.234 188.961 919.61 189.63C919.985 190.299 920.487 190.832 921.116 191.227C921.745 191.623 922.439 191.821 923.2 191.821ZM941.153 195.396C939.753 195.396 938.475 195.035 937.319 194.315C936.173 193.595 935.255 192.627 934.566 191.41C933.886 190.193 933.547 188.849 933.547 187.378C933.547 186.273 933.744 185.238 934.14 184.275C934.535 183.301 935.078 182.449 935.768 181.719C936.467 180.979 937.279 180.401 938.202 179.985C939.125 179.569 940.108 179.361 941.153 179.361C942.34 179.361 943.425 179.615 944.408 180.122C945.402 180.619 946.244 181.303 946.934 182.176C947.623 183.048 948.125 184.042 948.44 185.157C948.754 186.273 948.825 187.439 948.653 188.656H937.532C937.674 189.224 937.908 189.736 938.232 190.193C938.557 190.639 938.967 190.999 939.464 191.273C939.961 191.537 940.524 191.673 941.153 191.684C941.802 191.694 942.39 191.542 942.918 191.227C943.455 190.903 943.901 190.467 944.256 189.919L948.044 190.801C947.426 192.15 946.503 193.256 945.276 194.118C944.048 194.97 942.674 195.396 941.153 195.396ZM937.411 185.872H944.895C944.784 185.264 944.545 184.716 944.18 184.229C943.825 183.732 943.384 183.337 942.857 183.043C942.329 182.749 941.761 182.602 941.153 182.602C940.544 182.602 939.982 182.749 939.464 183.043C938.947 183.327 938.506 183.717 938.141 184.214C937.786 184.701 937.542 185.254 937.411 185.872ZM959.282 183.499H956.331V195H952.619V183.499H950.367V179.787H952.619V175.01H956.331V179.787H959.282V183.499Z"/>
<path fill="#579DFF" d="M735.515 327.589C729.782 324.233 727.809 316.822 731.72 311.453C743.278 295.588 758.584 282.74 776.347 274.105C794.109 265.47 813.667 261.369 833.282 262.079C839.921 262.319 844.53 268.448 843.628 275.03C842.727 281.611 836.65 286.136 830.008 286.061C815.125 285.895 800.348 289.185 786.864 295.74C773.38 302.295 761.666 311.884 752.604 323.691C748.559 328.961 741.248 330.945 735.515 327.589Z"/>
<path fill="#20C5BA" d="M936.828 373.505C943.449 372.967 949.316 377.906 949.19 384.548C948.917 399.042 946.024 413.401 940.619 426.923C933.721 444.177 922.92 459.599 909.062 471.978C895.204 484.357 878.666 493.357 860.746 498.272C842.826 503.186 824.011 503.882 805.777 500.305C787.543 496.727 770.386 488.973 755.651 477.652C740.917 466.33 729.006 451.749 720.853 435.051C712.7 418.354 708.526 399.994 708.66 381.413C708.765 366.851 711.512 352.463 716.736 338.94C719.129 332.743 726.427 330.387 732.354 333.387C738.281 336.387 740.574 343.608 738.337 349.862C734.703 360.019 732.793 370.742 732.715 381.586C732.608 396.451 735.947 411.138 742.469 424.496C748.991 437.854 758.52 449.52 770.308 458.577C782.095 467.634 795.821 473.837 810.409 476.699C824.996 479.561 840.048 479.004 854.384 475.073C868.72 471.141 881.95 463.941 893.036 454.038C904.123 444.135 912.764 431.797 918.282 417.994C922.307 407.925 924.59 397.275 925.063 386.498C925.355 379.862 930.207 374.044 936.828 373.505Z"/>
<path fill="#FFAB40" d="M850.744 276.248C852.082 269.741 858.468 265.493 864.808 267.474C884.907 273.755 903.077 285.227 917.432 300.823C931.787 316.42 941.717 335.477 946.312 356.027C947.762 362.509 943 368.521 936.405 369.316C929.81 370.112 923.894 365.38 922.282 358.936C918.395 343.391 910.67 328.997 899.733 317.114C888.795 305.231 875.09 296.341 859.92 291.181C853.631 289.042 849.406 282.754 850.744 276.248Z"/>
<path fill="#2B2B2B" d="M804.407 375.785C802.867 375.785 801.461 375.412 800.19 374.667C798.92 373.922 797.905 372.919 797.147 371.661C796.402 370.39 796.029 368.984 796.029 367.444H801.089C801.089 368.031 801.235 368.575 801.529 369.076C801.822 369.577 802.219 369.98 802.72 370.286C803.221 370.579 803.783 370.726 804.407 370.726C805.006 370.726 805.555 370.579 806.057 370.286C806.57 369.98 806.979 369.577 807.285 369.076C807.59 368.575 807.743 368.031 807.743 367.444C807.743 366.638 807.523 365.966 807.083 365.428C806.643 364.89 806.026 364.487 805.232 364.218C804.437 363.949 803.508 363.815 802.445 363.815V359.947C803.863 359.947 804.981 359.696 805.8 359.195C806.619 358.682 807.028 357.924 807.028 356.922C807.028 356.421 806.906 355.969 806.661 355.566C806.417 355.15 806.087 354.82 805.672 354.576C805.256 354.319 804.798 354.191 804.297 354.191C803.796 354.191 803.301 354.319 802.812 354.576C802.323 354.82 801.92 355.15 801.602 355.566C801.296 355.969 801.144 356.421 801.144 356.922H796.084C796.084 355.847 796.304 354.839 796.744 353.898C797.184 352.956 797.783 352.132 798.541 351.423C799.311 350.702 800.184 350.14 801.162 349.736C802.14 349.333 803.166 349.131 804.242 349.131C805.647 349.131 806.943 349.48 808.128 350.176C809.326 350.873 810.285 351.814 811.006 352.999C811.727 354.172 812.088 355.48 812.088 356.922C812.088 357.839 811.88 358.761 811.464 359.69C811.061 360.619 810.468 361.285 809.686 361.688C810.371 361.945 810.939 362.385 811.391 363.008C811.855 363.619 812.204 364.322 812.436 365.116C812.68 365.898 812.803 366.675 812.803 367.444C812.803 368.972 812.424 370.371 811.666 371.642C810.908 372.901 809.894 373.909 808.623 374.667C807.352 375.412 805.947 375.785 804.407 375.785ZM815.757 375.309L827.635 354.704H814.639V349.645H833.502V354.704L821.586 375.309H815.757ZM845.387 375.785C843.908 375.785 842.558 375.443 841.336 374.759C840.114 374.062 839.051 373.103 838.146 371.881C837.254 370.659 836.564 369.247 836.075 367.646C835.586 366.033 835.342 364.31 835.342 362.477C835.342 360.643 835.586 358.926 836.075 357.325C836.564 355.712 837.254 354.295 838.146 353.073C839.051 351.851 840.114 350.897 841.336 350.213C842.558 349.516 843.908 349.168 845.387 349.168C846.866 349.168 848.216 349.516 849.438 350.213C850.66 350.897 851.711 351.851 852.591 353.073C853.484 354.295 854.174 355.712 854.663 357.325C855.152 358.926 855.396 360.643 855.396 362.477C855.396 364.31 855.152 366.033 854.663 367.646C854.174 369.247 853.484 370.659 852.591 371.881C851.711 373.103 850.66 374.062 849.438 374.759C848.216 375.443 846.866 375.785 845.387 375.785ZM845.387 370.726C846.597 370.726 847.593 370.335 848.375 369.553C849.157 368.77 849.732 367.75 850.098 366.491C850.477 365.232 850.667 363.894 850.667 362.477C850.667 360.973 850.465 359.599 850.062 358.352C849.671 357.106 849.084 356.11 848.302 355.364C847.52 354.606 846.548 354.227 845.387 354.227C844.471 354.227 843.676 354.454 843.004 354.906C842.344 355.358 841.794 355.975 841.354 356.757C840.927 357.539 840.603 358.425 840.383 359.415C840.175 360.393 840.071 361.413 840.071 362.477C840.071 363.894 840.26 365.232 840.639 366.491C841.03 367.738 841.617 368.758 842.399 369.553C843.193 370.335 844.189 370.726 845.387 370.726ZM878.161 375.309H871.562L864.724 365.703L863.771 366.839V375.309H858.711V349.645H863.771V358.975L871.58 349.645H878.179L868.024 361.743L878.161 375.309Z"/>
<path fill="#002200" d="M794.257 409.876C793.222 409.876 792.327 409.648 791.572 409.193C790.817 408.727 790.227 408.075 789.803 407.237C789.389 406.389 789.182 405.396 789.182 404.257C789.182 403.399 789.301 402.628 789.539 401.945C789.777 401.252 790.113 400.662 790.548 400.176C790.993 399.679 791.525 399.301 792.146 399.043C792.777 398.784 793.481 398.655 794.257 398.655C795.292 398.655 796.186 398.882 796.942 399.338C797.697 399.793 798.282 400.44 798.696 401.278C799.109 402.116 799.316 403.104 799.316 404.242C799.316 405.101 799.197 405.877 798.959 406.57C798.721 407.263 798.38 407.858 797.935 408.355C797.5 408.851 796.973 409.229 796.352 409.488C795.731 409.746 795.033 409.876 794.257 409.876ZM794.257 408.603C795.002 408.603 795.638 408.432 796.166 408.091C796.693 407.749 797.097 407.253 797.376 406.601C797.666 405.949 797.811 405.168 797.811 404.257C797.811 402.881 797.5 401.816 796.88 401.06C796.269 400.305 795.395 399.927 794.257 399.927C793.512 399.927 792.87 400.098 792.332 400.44C791.805 400.771 791.401 401.262 791.122 401.914C790.843 402.555 790.703 403.337 790.703 404.257C790.703 405.623 791.013 406.689 791.634 407.454C792.255 408.22 793.129 408.603 794.257 408.603ZM804.244 409.844C804.047 409.844 803.876 409.793 803.731 409.689C803.587 409.586 803.462 409.42 803.359 409.193L800.721 403.047C800.648 402.871 800.622 402.711 800.643 402.566C800.664 402.421 800.731 402.302 800.845 402.209C800.969 402.116 801.134 402.069 801.341 402.069C801.517 402.069 801.657 402.111 801.76 402.193C801.864 402.276 801.962 402.421 802.055 402.628L804.492 408.634H804.057L806.556 402.628C806.639 402.421 806.732 402.276 806.835 402.193C806.949 402.111 807.104 402.069 807.301 402.069C807.477 402.069 807.611 402.116 807.704 402.209C807.808 402.302 807.87 402.421 807.891 402.566C807.911 402.711 807.88 402.866 807.798 403.031L805.144 409.193C805.051 409.42 804.926 409.586 804.771 409.689C804.626 409.793 804.45 409.844 804.244 409.844ZM812.776 409.876C811.958 409.876 811.255 409.72 810.665 409.41C810.086 409.089 809.636 408.639 809.315 408.06C808.994 407.47 808.834 406.777 808.834 405.98C808.834 405.194 808.989 404.506 809.299 403.916C809.62 403.326 810.055 402.866 810.603 402.535C811.162 402.204 811.798 402.038 812.512 402.038C813.019 402.038 813.474 402.126 813.878 402.302C814.291 402.467 814.643 402.711 814.933 403.031C815.223 403.352 815.44 403.745 815.585 404.211C815.74 404.666 815.818 405.183 815.818 405.763C815.818 405.928 815.766 406.058 815.662 406.151C815.569 406.234 815.43 406.275 815.243 406.275H809.936V405.375H814.886L814.623 405.592C814.623 405.054 814.54 404.599 814.374 404.226C814.219 403.844 813.986 403.554 813.676 403.357C813.376 403.161 812.998 403.062 812.543 403.062C812.046 403.062 811.622 403.181 811.27 403.419C810.919 403.647 810.65 403.973 810.463 404.397C810.277 404.811 810.184 405.292 810.184 405.84V405.934C810.184 406.865 810.406 407.568 810.851 408.044C811.296 408.52 811.938 408.758 812.776 408.758C813.107 408.758 813.443 408.717 813.785 408.634C814.136 408.551 814.473 408.401 814.793 408.184C814.948 408.091 815.088 408.049 815.212 408.06C815.347 408.06 815.455 408.101 815.538 408.184C815.621 408.256 815.673 408.349 815.693 408.463C815.714 408.567 815.699 408.681 815.647 408.805C815.595 408.929 815.497 409.037 815.352 409.131C815.011 409.369 814.602 409.555 814.126 409.689C813.66 409.813 813.21 409.876 812.776 409.876ZM818.304 409.844C818.066 409.844 817.884 409.782 817.76 409.658C817.636 409.534 817.574 409.353 817.574 409.115V402.783C817.574 402.545 817.636 402.369 817.76 402.255C817.884 402.131 818.055 402.069 818.272 402.069C818.49 402.069 818.655 402.131 818.769 402.255C818.893 402.369 818.955 402.545 818.955 402.783V403.978H818.8C818.966 403.357 819.276 402.886 819.731 402.566C820.187 402.245 820.761 402.064 821.454 402.023C821.62 402.012 821.754 402.054 821.858 402.147C821.961 402.229 822.018 402.374 822.028 402.581C822.039 402.778 821.992 402.938 821.889 403.062C821.785 403.176 821.625 403.243 821.407 403.264L821.128 403.28C820.445 403.352 819.918 403.575 819.545 403.947C819.183 404.319 819.002 404.832 819.002 405.483V409.115C819.002 409.353 818.94 409.534 818.816 409.658C818.702 409.782 818.531 409.844 818.304 409.844ZM825.572 409.876C825.055 409.876 824.584 409.772 824.16 409.565C823.746 409.358 823.42 409.079 823.182 408.727C822.955 408.375 822.841 407.982 822.841 407.548C822.841 406.989 822.98 406.549 823.26 406.228C823.539 405.908 824.01 405.68 824.672 405.546C825.334 405.401 826.224 405.328 827.341 405.328H828.071V406.228H827.372C826.576 406.228 825.945 406.265 825.479 406.337C825.024 406.409 824.703 406.539 824.517 406.725C824.331 406.901 824.237 407.149 824.237 407.47C824.237 407.873 824.377 408.205 824.657 408.463C824.946 408.722 825.339 408.851 825.836 408.851C826.229 408.851 826.576 408.758 826.876 408.572C827.176 408.375 827.414 408.117 827.59 407.796C827.766 407.465 827.854 407.087 827.854 406.663V404.878C827.854 404.268 827.729 403.828 827.481 403.559C827.233 403.28 826.814 403.14 826.224 403.14C825.883 403.14 825.531 403.187 825.169 403.28C824.807 403.373 824.429 403.518 824.036 403.714C823.881 403.787 823.746 403.813 823.632 403.792C823.518 403.761 823.425 403.699 823.353 403.606C823.291 403.502 823.255 403.393 823.244 403.28C823.244 403.156 823.27 403.037 823.322 402.923C823.384 402.809 823.487 402.726 823.632 402.674C824.087 402.447 824.538 402.286 824.982 402.193C825.438 402.09 825.862 402.038 826.255 402.038C826.928 402.038 827.481 402.147 827.916 402.364C828.35 402.571 828.676 402.897 828.893 403.342C829.111 403.776 829.219 404.335 829.219 405.018V409.115C829.219 409.353 829.162 409.534 829.049 409.658C828.935 409.782 828.769 409.844 828.552 409.844C828.345 409.844 828.179 409.782 828.055 409.658C827.942 409.534 827.885 409.353 827.885 409.115V408.013H828.024C827.942 408.396 827.786 408.727 827.559 409.006C827.331 409.286 827.047 409.503 826.705 409.658C826.374 409.803 825.996 409.876 825.572 409.876ZM833.816 409.876C833.04 409.876 832.451 409.648 832.047 409.193C831.644 408.727 831.442 408.06 831.442 407.191V399.4C831.442 399.162 831.504 398.986 831.628 398.872C831.752 398.748 831.923 398.686 832.14 398.686C832.368 398.686 832.544 398.748 832.668 398.872C832.792 398.986 832.854 399.162 832.854 399.4V407.082C832.854 407.62 832.963 408.024 833.18 408.293C833.408 408.551 833.728 408.681 834.142 408.681C834.235 408.681 834.318 408.681 834.39 408.681C834.463 408.67 834.535 408.66 834.608 408.649C834.722 408.639 834.804 408.67 834.856 408.743C834.908 408.815 834.934 408.96 834.934 409.177C834.934 409.374 834.887 409.529 834.794 409.643C834.711 409.746 834.572 409.813 834.375 409.844C834.282 409.855 834.189 409.86 834.096 409.86C834.003 409.87 833.909 409.876 833.816 409.876ZM838.484 409.876C837.708 409.876 837.119 409.648 836.715 409.193C836.312 408.727 836.11 408.06 836.11 407.191V399.4C836.11 399.162 836.172 398.986 836.296 398.872C836.42 398.748 836.591 398.686 836.808 398.686C837.036 398.686 837.212 398.748 837.336 398.872C837.46 398.986 837.522 399.162 837.522 399.4V407.082C837.522 407.62 837.631 408.024 837.848 408.293C838.076 408.551 838.396 408.681 838.81 408.681C838.903 408.681 838.986 408.681 839.059 408.681C839.131 408.67 839.203 408.66 839.276 408.649C839.39 408.639 839.472 408.67 839.524 408.743C839.576 408.815 839.602 408.96 839.602 409.177C839.602 409.374 839.555 409.529 839.462 409.643C839.379 409.746 839.24 409.813 839.043 409.844C838.95 409.855 838.857 409.86 838.764 409.86C838.671 409.87 838.577 409.876 838.484 409.876ZM845.725 409.844C845.497 409.844 845.321 409.782 845.197 409.658C845.073 409.524 845.011 409.338 845.011 409.1V399.524C845.011 399.286 845.073 399.105 845.197 398.981C845.331 398.857 845.512 398.794 845.74 398.794H849.434C850.613 398.794 851.519 399.084 852.15 399.664C852.791 400.243 853.112 401.055 853.112 402.1C853.112 403.156 852.791 403.973 852.15 404.552C851.519 405.132 850.613 405.421 849.434 405.421H846.454V409.1C846.454 409.338 846.392 409.524 846.268 409.658C846.154 409.782 845.973 409.844 845.725 409.844ZM846.454 404.257H849.248C850.055 404.257 850.66 404.076 851.063 403.714C851.477 403.342 851.684 402.804 851.684 402.1C851.684 401.397 851.477 400.869 851.063 400.517C850.66 400.155 850.055 399.974 849.248 399.974H846.454V404.257ZM855.284 409.844C855.046 409.844 854.865 409.782 854.741 409.658C854.617 409.534 854.555 409.353 854.555 409.115V402.783C854.555 402.545 854.617 402.369 854.741 402.255C854.865 402.131 855.036 402.069 855.253 402.069C855.47 402.069 855.636 402.131 855.75 402.255C855.874 402.369 855.936 402.545 855.936 402.783V403.978H855.781C855.946 403.357 856.257 402.886 856.712 402.566C857.167 402.245 857.741 402.064 858.434 402.023C858.6 402.012 858.735 402.054 858.838 402.147C858.941 402.229 858.998 402.374 859.009 402.581C859.019 402.778 858.972 402.938 858.869 403.062C858.766 403.176 858.605 403.243 858.388 403.264L858.109 403.28C857.426 403.352 856.898 403.575 856.526 403.947C856.163 404.319 855.982 404.832 855.982 405.483V409.115C855.982 409.353 855.92 409.534 855.796 409.658C855.682 409.782 855.512 409.844 855.284 409.844ZM863.329 409.876C862.584 409.876 861.938 409.715 861.389 409.394C860.841 409.074 860.417 408.618 860.117 408.029C859.817 407.439 859.667 406.746 859.667 405.949C859.667 405.349 859.749 404.811 859.915 404.335C860.091 403.849 860.339 403.435 860.66 403.093C860.981 402.752 861.364 402.493 861.808 402.317C862.264 402.131 862.771 402.038 863.329 402.038C864.074 402.038 864.721 402.198 865.269 402.519C865.818 402.84 866.242 403.295 866.542 403.885C866.842 404.464 866.992 405.152 866.992 405.949C866.992 406.549 866.904 407.092 866.728 407.579C866.563 408.065 866.319 408.479 865.999 408.82C865.678 409.162 865.29 409.425 864.835 409.612C864.39 409.788 863.888 409.876 863.329 409.876ZM863.329 408.758C863.785 408.758 864.178 408.649 864.509 408.432C864.85 408.215 865.109 407.899 865.285 407.485C865.471 407.072 865.564 406.559 865.564 405.949C865.564 405.039 865.362 404.345 864.959 403.869C864.555 403.393 864.012 403.156 863.329 403.156C862.884 403.156 862.491 403.264 862.15 403.481C861.819 403.688 861.56 403.999 861.374 404.413C861.188 404.826 861.095 405.339 861.095 405.949C861.095 406.86 861.296 407.558 861.7 408.044C862.114 408.52 862.657 408.758 863.329 408.758ZM867.482 412.685C867.316 412.695 867.177 412.669 867.063 412.607C866.949 412.545 866.871 412.457 866.83 412.343C866.789 412.24 866.778 412.131 866.799 412.017C866.82 411.914 866.871 411.821 866.954 411.738C867.027 411.665 867.13 411.624 867.265 411.614C867.813 411.583 868.217 411.433 868.475 411.164C868.734 410.905 868.863 410.496 868.863 409.938V402.783C868.863 402.545 868.925 402.369 869.049 402.255C869.174 402.131 869.349 402.069 869.577 402.069C869.794 402.069 869.965 402.131 870.089 402.255C870.213 402.369 870.275 402.545 870.275 402.783V409.829C870.275 410.47 870.167 410.993 869.95 411.396C869.743 411.81 869.432 412.121 869.018 412.328C868.605 412.535 868.092 412.654 867.482 412.685ZM869.562 400.424C869.282 400.424 869.06 400.352 868.894 400.207C868.739 400.052 868.661 399.85 868.661 399.601C868.661 399.332 868.739 399.131 868.894 398.996C869.06 398.851 869.282 398.779 869.562 398.779C869.851 398.779 870.074 398.851 870.229 398.996C870.384 399.131 870.462 399.332 870.462 399.601C870.462 399.85 870.384 400.052 870.229 400.207C870.074 400.352 869.851 400.424 869.562 400.424ZM876.037 409.876C875.219 409.876 874.516 409.72 873.926 409.41C873.346 409.089 872.896 408.639 872.576 408.06C872.255 407.47 872.095 406.777 872.095 405.98C872.095 405.194 872.25 404.506 872.56 403.916C872.881 403.326 873.315 402.866 873.864 402.535C874.423 402.204 875.059 402.038 875.773 402.038C876.28 402.038 876.735 402.126 877.138 402.302C877.552 402.467 877.904 402.711 878.194 403.031C878.483 403.352 878.701 403.745 878.846 404.211C879.001 404.666 879.078 405.183 879.078 405.763C879.078 405.928 879.027 406.058 878.923 406.151C878.83 406.234 878.69 406.275 878.504 406.275H873.196V405.375H878.147L877.883 405.592C877.883 405.054 877.801 404.599 877.635 404.226C877.48 403.844 877.247 403.554 876.937 403.357C876.637 403.161 876.259 403.062 875.804 403.062C875.307 403.062 874.883 403.181 874.531 403.419C874.179 403.647 873.91 403.973 873.724 404.397C873.538 404.811 873.445 405.292 873.445 405.84V405.934C873.445 406.865 873.667 407.568 874.112 408.044C874.557 408.52 875.198 408.758 876.037 408.758C876.368 408.758 876.704 408.717 877.045 408.634C877.397 408.551 877.733 408.401 878.054 408.184C878.209 408.091 878.349 408.049 878.473 408.06C878.608 408.06 878.716 408.101 878.799 408.184C878.882 408.256 878.934 408.349 878.954 408.463C878.975 408.567 878.959 408.681 878.908 408.805C878.856 408.929 878.758 409.037 878.613 409.131C878.271 409.369 877.863 409.555 877.387 409.689C876.921 409.813 876.471 409.876 876.037 409.876ZM884.11 409.876C883.344 409.876 882.682 409.715 882.123 409.394C881.564 409.063 881.135 408.603 880.835 408.013C880.535 407.413 880.385 406.71 880.385 405.902C880.385 405.302 880.468 404.764 880.633 404.288C880.809 403.813 881.057 403.409 881.378 403.078C881.699 402.736 882.087 402.478 882.542 402.302C883.008 402.126 883.53 402.038 884.11 402.038C884.472 402.038 884.855 402.095 885.258 402.209C885.662 402.323 886.034 402.509 886.375 402.768C886.489 402.85 886.562 402.949 886.593 403.062C886.624 403.166 886.624 403.274 886.593 403.388C886.572 403.502 886.52 403.6 886.438 403.683C886.365 403.756 886.267 403.797 886.143 403.807C886.029 403.818 885.905 403.781 885.77 403.699C885.522 403.512 885.258 403.378 884.979 403.295C884.71 403.212 884.451 403.171 884.203 403.171C883.82 403.171 883.478 403.233 883.178 403.357C882.889 403.481 882.64 403.662 882.433 403.9C882.237 404.128 882.087 404.413 881.983 404.754C881.88 405.085 881.828 405.473 881.828 405.918C881.828 406.797 882.035 407.491 882.449 407.998C882.863 408.494 883.447 408.743 884.203 408.743C884.451 408.743 884.71 408.706 884.979 408.634C885.248 408.551 885.512 408.417 885.77 408.23C885.905 408.148 886.029 408.117 886.143 408.137C886.256 408.148 886.35 408.194 886.422 408.277C886.505 408.349 886.557 408.443 886.577 408.556C886.598 408.66 886.588 408.768 886.546 408.882C886.515 408.996 886.443 409.089 886.329 409.162C885.998 409.41 885.636 409.591 885.243 409.705C884.849 409.819 884.472 409.876 884.11 409.876ZM891.199 409.876C890.589 409.876 890.077 409.767 889.663 409.55C889.259 409.332 888.954 409.017 888.747 408.603C888.551 408.189 888.452 407.682 888.452 407.082V403.264H887.459C887.273 403.264 887.128 403.218 887.024 403.124C886.921 403.021 886.869 402.886 886.869 402.721C886.869 402.545 886.921 402.411 887.024 402.317C887.128 402.224 887.273 402.178 887.459 402.178H888.452V400.486C888.452 400.248 888.514 400.072 888.639 399.958C888.763 399.834 888.939 399.772 889.166 399.772C889.394 399.772 889.565 399.834 889.678 399.958C889.802 400.072 889.865 400.248 889.865 400.486V402.178H891.742C891.939 402.178 892.089 402.224 892.193 402.317C892.296 402.411 892.348 402.545 892.348 402.721C892.348 402.886 892.296 403.021 892.193 403.124C892.089 403.218 891.939 403.264 891.742 403.264H889.865V406.958C889.865 407.527 889.984 407.956 890.222 408.246C890.459 408.536 890.853 408.681 891.401 408.681C891.598 408.681 891.763 408.665 891.898 408.634C892.032 408.593 892.151 408.572 892.255 408.572C892.348 408.562 892.425 408.593 892.487 408.665C892.56 408.737 892.596 408.872 892.596 409.068C892.596 409.213 892.57 409.348 892.518 409.472C892.477 409.586 892.389 409.663 892.255 409.705C892.13 409.746 891.965 409.782 891.758 409.813C891.551 409.855 891.365 409.876 891.199 409.876ZM822.672 427.876C822.185 427.876 821.714 427.834 821.259 427.751C820.804 427.679 820.375 427.565 819.971 427.41C819.568 427.255 819.205 427.063 818.885 426.836C818.75 426.743 818.652 426.629 818.59 426.494C818.538 426.36 818.523 426.23 818.543 426.106C818.574 425.972 818.631 425.858 818.714 425.765C818.807 425.672 818.916 425.615 819.04 425.594C819.164 425.573 819.299 425.615 819.443 425.718C819.919 426.039 820.416 426.272 820.933 426.417C821.461 426.562 822.04 426.634 822.672 426.634C823.582 426.634 824.249 426.468 824.674 426.137C825.108 425.806 825.325 425.372 825.325 424.834C825.325 424.389 825.17 424.042 824.86 423.794C824.549 423.535 824.027 423.333 823.292 423.189L821.647 422.847C820.675 422.64 819.945 422.299 819.459 421.823C818.983 421.347 818.745 420.711 818.745 419.914C818.745 419.428 818.843 418.988 819.04 418.595C819.236 418.191 819.516 417.845 819.878 417.555C820.24 417.265 820.664 417.043 821.151 416.888C821.647 416.732 822.196 416.655 822.796 416.655C823.437 416.655 824.037 416.743 824.596 416.919C825.165 417.095 825.677 417.353 826.132 417.695C826.257 417.788 826.339 417.902 826.381 418.036C826.422 418.16 826.427 418.284 826.396 418.409C826.376 418.533 826.319 418.636 826.226 418.719C826.143 418.802 826.034 418.848 825.9 418.859C825.775 418.869 825.636 418.822 825.481 418.719C825.067 418.429 824.643 418.222 824.208 418.098C823.773 417.964 823.297 417.896 822.78 417.896C822.252 417.896 821.792 417.979 821.399 418.145C821.016 418.31 820.716 418.543 820.499 418.843C820.292 419.133 820.188 419.474 820.188 419.867C820.188 420.343 820.333 420.716 820.623 420.985C820.913 421.254 821.399 421.461 822.082 421.606L823.711 421.931C824.746 422.149 825.512 422.485 826.008 422.94C826.515 423.385 826.769 423.985 826.769 424.741C826.769 425.216 826.67 425.646 826.474 426.029C826.288 426.411 826.019 426.743 825.667 427.022C825.315 427.291 824.886 427.503 824.379 427.658C823.872 427.803 823.303 427.876 822.672 427.876ZM831.583 427.876C830.973 427.876 830.461 427.767 830.047 427.55C829.643 427.332 829.338 427.017 829.131 426.603C828.935 426.189 828.836 425.682 828.836 425.082V421.264H827.843C827.657 421.264 827.512 421.218 827.409 421.124C827.305 421.021 827.253 420.886 827.253 420.721C827.253 420.545 827.305 420.411 827.409 420.317C827.512 420.224 827.657 420.178 827.843 420.178H828.836V418.486C828.836 418.248 828.899 418.072 829.023 417.958C829.147 417.834 829.323 417.772 829.55 417.772C829.778 417.772 829.949 417.834 830.063 417.958C830.187 418.072 830.249 418.248 830.249 418.486V420.178H832.127C832.323 420.178 832.473 420.224 832.577 420.317C832.68 420.411 832.732 420.545 832.732 420.721C832.732 420.886 832.68 421.021 832.577 421.124C832.473 421.218 832.323 421.264 832.127 421.264H830.249V424.958C830.249 425.527 830.368 425.956 830.606 426.246C830.844 426.536 831.237 426.681 831.785 426.681C831.982 426.681 832.147 426.665 832.282 426.634C832.416 426.593 832.535 426.572 832.639 426.572C832.732 426.562 832.809 426.593 832.872 426.665C832.944 426.737 832.98 426.872 832.98 427.068C832.98 427.213 832.954 427.348 832.903 427.472C832.861 427.586 832.773 427.663 832.639 427.705C832.515 427.746 832.349 427.782 832.142 427.813C831.935 427.855 831.749 427.876 831.583 427.876ZM836.416 427.876C835.899 427.876 835.428 427.772 835.004 427.565C834.59 427.358 834.264 427.079 834.026 426.727C833.799 426.375 833.685 425.982 833.685 425.548C833.685 424.989 833.824 424.549 834.104 424.228C834.383 423.908 834.854 423.68 835.516 423.546C836.178 423.401 837.068 423.328 838.185 423.328H838.915V424.228H838.217C837.42 424.228 836.789 424.265 836.323 424.337C835.868 424.409 835.547 424.539 835.361 424.725C835.175 424.901 835.082 425.149 835.082 425.47C835.082 425.873 835.221 426.205 835.501 426.463C835.79 426.722 836.183 426.851 836.68 426.851C837.073 426.851 837.42 426.758 837.72 426.572C838.02 426.375 838.258 426.117 838.434 425.796C838.61 425.465 838.698 425.087 838.698 424.663V422.878C838.698 422.268 838.573 421.828 838.325 421.559C838.077 421.28 837.658 421.14 837.068 421.14C836.727 421.14 836.375 421.187 836.013 421.28C835.651 421.373 835.273 421.518 834.88 421.714C834.725 421.787 834.59 421.813 834.476 421.792C834.362 421.761 834.269 421.699 834.197 421.606C834.135 421.502 834.099 421.393 834.088 421.28C834.088 421.156 834.114 421.037 834.166 420.923C834.228 420.809 834.331 420.726 834.476 420.674C834.932 420.447 835.382 420.286 835.826 420.193C836.282 420.09 836.706 420.038 837.099 420.038C837.772 420.038 838.325 420.147 838.76 420.364C839.194 420.571 839.52 420.897 839.737 421.342C839.955 421.776 840.063 422.335 840.063 423.018V427.115C840.063 427.353 840.006 427.534 839.893 427.658C839.779 427.782 839.613 427.844 839.396 427.844C839.189 427.844 839.024 427.782 838.899 427.658C838.786 427.534 838.729 427.353 838.729 427.115V426.013H838.868C838.786 426.396 838.63 426.727 838.403 427.006C838.175 427.286 837.891 427.503 837.549 427.658C837.218 427.803 836.84 427.876 836.416 427.876ZM845.421 427.876C844.81 427.876 844.298 427.767 843.884 427.55C843.481 427.332 843.176 427.017 842.969 426.603C842.772 426.189 842.674 425.682 842.674 425.082V421.264H841.681C841.494 421.264 841.349 421.218 841.246 421.124C841.143 421.021 841.091 420.886 841.091 420.721C841.091 420.545 841.143 420.411 841.246 420.317C841.349 420.224 841.494 420.178 841.681 420.178H842.674V418.486C842.674 418.248 842.736 418.072 842.86 417.958C842.984 417.834 843.16 417.772 843.388 417.772C843.615 417.772 843.786 417.834 843.9 417.958C844.024 418.072 844.086 418.248 844.086 418.486V420.178H845.964C846.161 420.178 846.311 420.224 846.414 420.317C846.518 420.411 846.569 420.545 846.569 420.721C846.569 420.886 846.518 421.021 846.414 421.124C846.311 421.218 846.161 421.264 845.964 421.264H844.086V424.958C844.086 425.527 844.205 425.956 844.443 426.246C844.681 426.536 845.074 426.681 845.623 426.681C845.819 426.681 845.985 426.665 846.119 426.634C846.254 426.593 846.373 426.572 846.476 426.572C846.569 426.562 846.647 426.593 846.709 426.665C846.781 426.737 846.818 426.872 846.818 427.068C846.818 427.213 846.792 427.348 846.74 427.472C846.699 427.586 846.611 427.663 846.476 427.705C846.352 427.746 846.186 427.782 845.98 427.813C845.773 427.855 845.586 427.876 845.421 427.876ZM850.548 427.876C849.938 427.876 849.426 427.762 849.012 427.534C848.609 427.306 848.308 426.97 848.112 426.525C847.915 426.08 847.817 425.522 847.817 424.849V420.783C847.817 420.545 847.874 420.369 847.988 420.255C848.112 420.131 848.288 420.069 848.515 420.069C848.743 420.069 848.919 420.131 849.043 420.255C849.167 420.369 849.229 420.545 849.229 420.783V424.849C849.229 425.491 849.359 425.967 849.617 426.277C849.876 426.577 850.285 426.727 850.843 426.727C851.464 426.727 851.966 426.52 852.349 426.106C852.742 425.692 852.938 425.144 852.938 424.461V420.783C852.938 420.545 852.995 420.369 853.109 420.255C853.233 420.131 853.409 420.069 853.637 420.069C853.865 420.069 854.04 420.131 854.165 420.255C854.289 420.369 854.351 420.545 854.351 420.783V427.115C854.351 427.601 854.123 427.844 853.668 427.844C853.44 427.844 853.264 427.782 853.14 427.658C853.026 427.534 852.97 427.353 852.97 427.115V425.765L853.171 426.029C852.964 426.629 852.628 427.089 852.163 427.41C851.707 427.72 851.169 427.876 850.548 427.876ZM859.231 427.876C858.765 427.876 858.294 427.824 857.818 427.72C857.353 427.607 856.913 427.415 856.499 427.146C856.385 427.074 856.303 426.986 856.251 426.882C856.209 426.768 856.194 426.66 856.204 426.556C856.225 426.443 856.272 426.344 856.344 426.261C856.416 426.179 856.504 426.132 856.608 426.122C856.722 426.101 856.841 426.127 856.965 426.199C857.368 426.427 857.756 426.587 858.129 426.681C858.512 426.774 858.889 426.82 859.262 426.82C859.831 426.82 860.26 426.717 860.55 426.51C860.839 426.303 860.984 426.029 860.984 425.687C860.984 425.398 860.886 425.175 860.689 425.02C860.503 424.854 860.208 424.73 859.805 424.647L858.362 424.353C857.72 424.208 857.234 423.97 856.903 423.639C856.582 423.297 856.422 422.863 856.422 422.335C856.422 421.869 856.546 421.466 856.794 421.124C857.053 420.773 857.41 420.504 857.865 420.317C858.32 420.131 858.843 420.038 859.432 420.038C859.888 420.038 860.317 420.1 860.721 420.224C861.134 420.338 861.507 420.514 861.838 420.752C861.962 420.824 862.04 420.918 862.071 421.031C862.112 421.135 862.117 421.243 862.086 421.357C862.066 421.461 862.019 421.549 861.947 421.621C861.874 421.694 861.781 421.74 861.667 421.761C861.553 421.771 861.429 421.74 861.295 421.668C860.995 421.461 860.684 421.316 860.364 421.233C860.053 421.14 859.743 421.093 859.432 421.093C858.874 421.093 858.449 421.202 858.16 421.419C857.88 421.637 857.741 421.921 857.741 422.273C857.741 422.542 857.824 422.764 857.989 422.94C858.165 423.116 858.439 423.245 858.812 423.328L860.255 423.623C860.927 423.768 861.434 424.001 861.776 424.322C862.117 424.632 862.288 425.056 862.288 425.594C862.288 426.298 862.009 426.856 861.45 427.27C860.902 427.674 860.162 427.876 859.231 427.876Z"/>
<circle fill="#FEA362" r="11.3878" cy="572.943" cx="708.044"/>
<path fill="#002200" d="M734.433 578.074C734.116 578.074 733.87 577.986 733.695 577.811C733.531 577.637 733.449 577.385 733.449 577.057V567.3C733.449 566.961 733.531 566.704 733.695 566.529C733.87 566.344 734.094 566.251 734.368 566.251C734.619 566.251 734.805 566.3 734.925 566.398C735.056 566.486 735.209 566.639 735.384 566.857L741.665 575.007H741.238V567.251C741.238 566.934 741.32 566.688 741.484 566.513C741.659 566.338 741.905 566.251 742.222 566.251C742.539 566.251 742.78 566.338 742.944 566.513C743.108 566.688 743.19 566.934 743.19 567.251V577.09C743.19 577.396 743.113 577.637 742.96 577.811C742.807 577.986 742.6 578.074 742.337 578.074C742.086 578.074 741.883 578.025 741.73 577.926C741.588 577.828 741.43 577.669 741.255 577.451L734.991 569.301H735.401V577.057C735.401 577.385 735.319 577.637 735.155 577.811C734.991 577.986 734.75 578.074 734.433 578.074ZM749.471 578.107C748.564 578.107 747.782 577.937 747.126 577.598C746.47 577.259 745.962 576.778 745.601 576.155C745.251 575.532 745.076 574.794 745.076 573.941C745.076 573.111 745.246 572.384 745.585 571.76C745.935 571.137 746.41 570.651 747.011 570.301C747.624 569.94 748.318 569.76 749.094 569.76C749.663 569.76 750.171 569.853 750.619 570.039C751.078 570.224 751.466 570.492 751.783 570.842C752.111 571.192 752.357 571.618 752.521 572.121C752.696 572.613 752.784 573.171 752.784 573.794C752.784 573.991 752.713 574.144 752.571 574.253C752.439 574.351 752.248 574.401 751.997 574.401H746.733V573.22H751.341L751.078 573.466C751.078 572.963 751.002 572.542 750.849 572.203C750.707 571.864 750.493 571.607 750.209 571.432C749.936 571.247 749.592 571.154 749.176 571.154C748.717 571.154 748.323 571.263 747.995 571.482C747.678 571.689 747.432 571.99 747.257 572.384C747.093 572.766 747.011 573.225 747.011 573.761V573.876C747.011 574.772 747.219 575.445 747.635 575.893C748.061 576.33 748.684 576.549 749.504 576.549C749.788 576.549 750.105 576.516 750.455 576.45C750.816 576.374 751.155 576.248 751.472 576.073C751.701 575.942 751.904 575.887 752.079 575.909C752.254 575.92 752.39 575.98 752.489 576.09C752.598 576.199 752.663 576.336 752.685 576.5C752.707 576.653 752.674 576.811 752.587 576.975C752.51 577.139 752.374 577.281 752.177 577.401C751.794 577.642 751.352 577.822 750.849 577.943C750.357 578.052 749.898 578.107 749.471 578.107ZM757.378 578.074C757.105 578.074 756.87 578.008 756.673 577.877C756.476 577.735 756.318 577.516 756.198 577.221L753.82 571.154C753.721 570.891 753.689 570.662 753.721 570.465C753.765 570.257 753.869 570.093 754.033 569.973C754.197 569.853 754.416 569.793 754.689 569.793C754.929 569.793 755.126 569.853 755.279 569.973C755.432 570.082 755.563 570.296 755.673 570.613L757.657 576.073H757.28L759.33 570.481C759.417 570.241 759.532 570.066 759.674 569.957C759.827 569.847 760.024 569.793 760.264 569.793C760.505 569.793 760.702 569.853 760.855 569.973C761.008 570.082 761.123 570.252 761.199 570.481L763.216 576.073H762.872L764.872 570.563C764.982 570.268 765.118 570.066 765.282 569.957C765.457 569.847 765.648 569.793 765.856 569.793C766.119 569.793 766.321 569.858 766.463 569.989C766.605 570.121 766.687 570.29 766.709 570.498C766.731 570.695 766.692 570.913 766.594 571.154L764.233 577.221C764.123 577.505 763.965 577.719 763.757 577.861C763.56 578.003 763.325 578.074 763.052 578.074C762.779 578.074 762.538 578.003 762.331 577.861C762.134 577.719 761.981 577.505 761.871 577.221L759.723 571.531H760.658L758.559 577.205C758.45 577.5 758.297 577.719 758.1 577.861C757.903 578.003 757.662 578.074 757.378 578.074ZM773.728 581.026C773.4 581.026 773.148 580.938 772.973 580.763C772.799 580.588 772.711 580.331 772.711 579.992V570.826C772.711 570.487 772.799 570.23 772.973 570.055C773.148 569.88 773.394 569.793 773.711 569.793C774.039 569.793 774.291 569.88 774.466 570.055C774.641 570.23 774.728 570.487 774.728 570.826V572.105L774.548 571.613C774.712 571.055 775.045 570.607 775.548 570.268C776.062 569.929 776.658 569.76 777.335 569.76C778.035 569.76 778.647 569.929 779.172 570.268C779.708 570.607 780.123 571.088 780.418 571.711C780.713 572.323 780.861 573.061 780.861 573.925C780.861 574.778 780.713 575.521 780.418 576.155C780.123 576.778 779.713 577.259 779.188 577.598C778.664 577.937 778.046 578.107 777.335 578.107C776.669 578.107 776.084 577.943 775.581 577.615C775.078 577.276 774.739 576.838 774.564 576.303H774.761V579.992C774.761 580.331 774.668 580.588 774.482 580.763C774.307 580.938 774.056 581.026 773.728 581.026ZM776.761 576.549C777.166 576.549 777.521 576.45 777.827 576.254C778.133 576.057 778.369 575.767 778.533 575.384C778.707 574.991 778.795 574.504 778.795 573.925C778.795 573.05 778.609 572.4 778.237 571.974C777.866 571.536 777.374 571.318 776.761 571.318C776.357 571.318 776.002 571.416 775.696 571.613C775.389 571.799 775.149 572.088 774.974 572.482C774.81 572.865 774.728 573.346 774.728 573.925C774.728 574.789 774.914 575.445 775.286 575.893C775.657 576.33 776.149 576.549 776.761 576.549ZM783.593 578.074C783.254 578.074 782.992 577.986 782.806 577.811C782.631 577.626 782.544 577.363 782.544 577.024V570.826C782.544 570.487 782.631 570.23 782.806 570.055C782.981 569.88 783.227 569.793 783.544 569.793C783.861 569.793 784.107 569.88 784.282 570.055C784.457 570.23 784.544 570.487 784.544 570.826V571.859H784.38C784.533 571.203 784.834 570.705 785.282 570.367C785.73 570.028 786.326 569.825 787.07 569.76C787.299 569.738 787.48 569.798 787.611 569.94C787.753 570.071 787.835 570.279 787.857 570.563C787.879 570.837 787.813 571.061 787.66 571.236C787.518 571.4 787.299 571.498 787.004 571.531L786.643 571.564C785.976 571.629 785.474 571.837 785.135 572.187C784.796 572.526 784.626 573.007 784.626 573.63V577.024C784.626 577.363 784.539 577.626 784.364 577.811C784.189 577.986 783.932 578.074 783.593 578.074ZM792.494 578.107C791.663 578.107 790.942 577.937 790.329 577.598C789.717 577.259 789.242 576.778 788.903 576.155C788.564 575.521 788.394 574.778 788.394 573.925C788.394 573.28 788.487 572.706 788.673 572.203C788.87 571.689 789.149 571.252 789.51 570.891C789.87 570.52 790.302 570.241 790.805 570.055C791.308 569.858 791.871 569.76 792.494 569.76C793.325 569.76 794.046 569.929 794.659 570.268C795.271 570.607 795.746 571.088 796.085 571.711C796.424 572.334 796.594 573.072 796.594 573.925C796.594 574.57 796.495 575.149 796.298 575.663C796.113 576.177 795.839 576.62 795.479 576.992C795.118 577.352 794.686 577.631 794.183 577.828C793.68 578.014 793.117 578.107 792.494 578.107ZM792.494 576.549C792.899 576.549 793.254 576.45 793.56 576.254C793.866 576.057 794.101 575.767 794.265 575.384C794.44 574.991 794.527 574.504 794.527 573.925C794.527 573.05 794.342 572.4 793.97 571.974C793.598 571.536 793.106 571.318 792.494 571.318C792.09 571.318 791.734 571.416 791.428 571.613C791.122 571.799 790.882 572.088 790.707 572.482C790.543 572.865 790.461 573.346 790.461 573.925C790.461 574.789 790.647 575.445 791.018 575.893C791.39 576.33 791.882 576.549 792.494 576.549ZM797.302 581.042C797.061 581.064 796.864 581.026 796.711 580.927C796.558 580.84 796.454 580.725 796.4 580.583C796.334 580.441 796.312 580.293 796.334 580.14C796.356 579.987 796.422 579.85 796.531 579.73C796.629 579.621 796.766 579.561 796.941 579.55C797.433 579.506 797.788 579.364 798.007 579.123C798.236 578.894 798.351 578.538 798.351 578.057V570.826C798.351 570.487 798.439 570.23 798.613 570.055C798.799 569.88 799.056 569.793 799.384 569.793C799.712 569.793 799.964 569.88 800.139 570.055C800.313 570.23 800.401 570.487 800.401 570.826V577.877C800.401 578.577 800.286 579.151 800.057 579.599C799.838 580.047 799.499 580.386 799.04 580.616C798.592 580.845 798.012 580.987 797.302 581.042ZM799.368 568.284C798.985 568.284 798.685 568.191 798.466 568.005C798.258 567.808 798.154 567.541 798.154 567.202C798.154 566.852 798.258 566.584 798.466 566.398C798.685 566.212 798.985 566.119 799.368 566.119C799.761 566.119 800.062 566.212 800.27 566.398C800.477 566.584 800.581 566.852 800.581 567.202C800.581 567.541 800.477 567.808 800.27 568.005C800.062 568.191 799.761 568.284 799.368 568.284ZM806.481 578.107C805.574 578.107 804.792 577.937 804.136 577.598C803.48 577.259 802.972 576.778 802.611 576.155C802.261 575.532 802.086 574.794 802.086 573.941C802.086 573.111 802.256 572.384 802.595 571.76C802.945 571.137 803.42 570.651 804.021 570.301C804.634 569.94 805.328 569.76 806.104 569.76C806.673 569.76 807.181 569.853 807.629 570.039C808.088 570.224 808.476 570.492 808.793 570.842C809.121 571.192 809.367 571.618 809.531 572.121C809.706 572.613 809.794 573.171 809.794 573.794C809.794 573.991 809.723 574.144 809.581 574.253C809.449 574.351 809.258 574.401 809.007 574.401H803.743V573.22H808.351L808.088 573.466C808.088 572.963 808.012 572.542 807.859 572.203C807.717 571.864 807.503 571.607 807.219 571.432C806.946 571.247 806.602 571.154 806.186 571.154C805.727 571.154 805.333 571.263 805.005 571.482C804.688 571.689 804.442 571.99 804.267 572.384C804.103 572.766 804.021 573.225 804.021 573.761V573.876C804.021 574.772 804.229 575.445 804.645 575.893C805.071 576.33 805.694 576.549 806.514 576.549C806.798 576.549 807.115 576.516 807.465 576.45C807.826 576.374 808.165 576.248 808.482 576.073C808.711 575.942 808.914 575.887 809.089 575.909C809.264 575.92 809.4 575.98 809.499 576.09C809.608 576.199 809.673 576.336 809.695 576.5C809.717 576.653 809.684 576.811 809.597 576.975C809.52 577.139 809.384 577.281 809.187 577.401C808.804 577.642 808.362 577.822 807.859 577.943C807.367 578.052 806.908 578.107 806.481 578.107ZM815.123 578.107C814.281 578.107 813.549 577.937 812.926 577.598C812.303 577.248 811.822 576.756 811.483 576.122C811.144 575.488 810.974 574.745 810.974 573.892C810.974 573.247 811.067 572.673 811.253 572.17C811.45 571.657 811.729 571.225 812.089 570.875C812.45 570.514 812.887 570.241 813.401 570.055C813.915 569.858 814.489 569.76 815.123 569.76C815.484 569.76 815.872 569.809 816.287 569.907C816.714 570.006 817.113 570.17 817.484 570.399C817.659 570.509 817.774 570.64 817.829 570.793C817.883 570.946 817.894 571.105 817.862 571.268C817.829 571.422 817.758 571.558 817.648 571.678C817.55 571.788 817.424 571.859 817.271 571.892C817.118 571.913 816.949 571.875 816.763 571.777C816.522 571.635 816.276 571.531 816.025 571.465C815.774 571.389 815.533 571.35 815.303 571.35C814.943 571.35 814.626 571.411 814.352 571.531C814.079 571.64 813.844 571.804 813.647 572.023C813.461 572.231 813.319 572.493 813.221 572.81C813.122 573.127 813.073 573.493 813.073 573.909C813.073 574.718 813.265 575.357 813.647 575.827C814.041 576.286 814.593 576.516 815.303 576.516C815.533 576.516 815.768 576.483 816.009 576.418C816.26 576.352 816.511 576.248 816.763 576.106C816.949 576.008 817.113 575.975 817.255 576.008C817.408 576.04 817.534 576.117 817.632 576.237C817.73 576.347 817.791 576.483 817.812 576.647C817.834 576.8 817.812 576.953 817.747 577.106C817.692 577.259 817.583 577.385 817.419 577.483C817.058 577.702 816.675 577.861 816.271 577.959C815.866 578.057 815.484 578.107 815.123 578.107ZM822.857 578.107C822.146 578.107 821.551 577.986 821.07 577.746C820.6 577.505 820.25 577.156 820.02 576.696C819.791 576.226 819.676 575.647 819.676 574.958V571.465H818.823C818.561 571.465 818.358 571.4 818.216 571.268C818.074 571.126 818.003 570.935 818.003 570.695C818.003 570.443 818.074 570.252 818.216 570.121C818.358 569.989 818.561 569.924 818.823 569.924H819.676V568.432C819.676 568.093 819.763 567.836 819.938 567.661C820.124 567.486 820.381 567.398 820.709 567.398C821.037 567.398 821.288 567.486 821.463 567.661C821.638 567.836 821.726 568.093 821.726 568.432V569.924H823.464C823.726 569.924 823.928 569.989 824.071 570.121C824.213 570.252 824.284 570.443 824.284 570.695C824.284 570.935 824.213 571.126 824.071 571.268C823.928 571.4 823.726 571.465 823.464 571.465H821.726V574.843C821.726 575.368 821.84 575.762 822.07 576.024C822.3 576.286 822.671 576.418 823.185 576.418C823.371 576.418 823.535 576.401 823.677 576.368C823.819 576.336 823.945 576.314 824.054 576.303C824.185 576.292 824.295 576.336 824.382 576.434C824.47 576.521 824.513 576.707 824.513 576.992C824.513 577.21 824.475 577.407 824.399 577.582C824.333 577.746 824.207 577.861 824.021 577.926C823.879 577.97 823.693 578.008 823.464 578.041C823.234 578.085 823.032 578.107 822.857 578.107ZM828.413 578.107C827.943 578.107 827.445 578.057 826.92 577.959C826.396 577.861 825.926 577.691 825.51 577.451C825.335 577.341 825.21 577.216 825.133 577.074C825.067 576.92 825.04 576.773 825.051 576.631C825.073 576.478 825.128 576.347 825.215 576.237C825.313 576.128 825.434 576.057 825.576 576.024C825.729 575.991 825.893 576.019 826.068 576.106C826.505 576.314 826.915 576.461 827.298 576.549C827.68 576.625 828.057 576.664 828.429 576.664C828.954 576.664 829.342 576.576 829.593 576.401C829.856 576.215 829.987 575.975 829.987 575.68C829.987 575.428 829.899 575.237 829.725 575.106C829.561 574.964 829.309 574.86 828.97 574.794L827.33 574.483C826.653 574.351 826.133 574.105 825.773 573.745C825.423 573.373 825.248 572.897 825.248 572.318C825.248 571.793 825.39 571.34 825.674 570.957C825.969 570.574 826.374 570.279 826.888 570.071C827.401 569.864 827.992 569.76 828.659 569.76C829.14 569.76 829.588 569.814 830.003 569.924C830.43 570.022 830.84 570.181 831.233 570.399C831.397 570.487 831.507 570.602 831.561 570.744C831.627 570.886 831.643 571.033 831.61 571.186C831.578 571.329 831.512 571.46 831.414 571.58C831.315 571.689 831.189 571.76 831.036 571.793C830.894 571.815 830.73 571.782 830.544 571.695C830.206 571.52 829.878 571.394 829.561 571.318C829.254 571.241 828.959 571.203 828.675 571.203C828.139 571.203 827.74 571.296 827.478 571.482C827.227 571.668 827.101 571.913 827.101 572.22C827.101 572.449 827.177 572.64 827.33 572.794C827.483 572.947 827.718 573.05 828.036 573.105L829.675 573.417C830.386 573.548 830.922 573.788 831.282 574.138C831.654 574.488 831.84 574.958 831.84 575.548C831.84 576.347 831.528 576.975 830.905 577.434C830.282 577.882 829.451 578.107 828.413 578.107Z"/>
<circle fill="#579DFF" r="11.3878" cy="609.383" cx="708.044"/>
<path fill="#002200" d="M738.631 614.547C737.516 614.547 736.538 614.301 735.696 613.809C734.865 613.318 734.22 612.629 733.761 611.743C733.302 610.847 733.072 609.797 733.072 608.595C733.072 607.687 733.203 606.873 733.466 606.151C733.728 605.419 734.1 604.796 734.581 604.282C735.073 603.757 735.658 603.358 736.335 603.085C737.024 602.801 737.789 602.659 738.631 602.659C739.757 602.659 740.736 602.905 741.566 603.397C742.397 603.878 743.042 604.561 743.501 605.446C743.961 606.332 744.19 607.376 744.19 608.578C744.19 609.486 744.059 610.306 743.797 611.038C743.534 611.771 743.157 612.399 742.665 612.924C742.184 613.449 741.599 613.853 740.911 614.137C740.233 614.411 739.473 614.547 738.631 614.547ZM738.631 612.744C739.342 612.744 739.943 612.58 740.435 612.252C740.938 611.924 741.32 611.448 741.583 610.825C741.856 610.202 741.993 609.458 741.993 608.595C741.993 607.283 741.698 606.266 741.107 605.545C740.528 604.823 739.703 604.462 738.631 604.462C737.931 604.462 737.33 604.626 736.827 604.954C736.324 605.271 735.936 605.741 735.663 606.365C735.401 606.977 735.269 607.72 735.269 608.595C735.269 609.896 735.565 610.912 736.155 611.645C736.745 612.377 737.571 612.744 738.631 612.744ZM747.144 614.515C746.817 614.515 746.565 614.427 746.39 614.252C746.215 614.066 746.128 613.804 746.128 613.465V607.267C746.128 606.928 746.215 606.671 746.39 606.496C746.565 606.321 746.811 606.233 747.128 606.233C747.445 606.233 747.691 606.321 747.866 606.496C748.041 606.671 748.128 606.928 748.128 607.267V608.382L747.948 607.972C748.189 607.392 748.56 606.955 749.063 606.66C749.577 606.354 750.156 606.201 750.801 606.201C751.446 606.201 751.977 606.321 752.392 606.561C752.807 606.802 753.119 607.168 753.327 607.66C753.534 608.141 753.638 608.753 753.638 609.497V613.465C753.638 613.804 753.551 614.066 753.376 614.252C753.201 614.427 752.949 614.515 752.622 614.515C752.294 614.515 752.037 614.427 751.851 614.252C751.676 614.066 751.588 613.804 751.588 613.465V609.595C751.588 608.972 751.468 608.518 751.228 608.234C750.998 607.95 750.637 607.808 750.145 607.808C749.544 607.808 749.063 607.999 748.702 608.382C748.352 608.753 748.178 609.251 748.178 609.874V613.465C748.178 614.165 747.833 614.515 747.144 614.515ZM759.459 617.499C758.869 617.499 758.295 617.444 757.737 617.335C757.191 617.226 756.693 617.056 756.245 616.827C756.037 616.717 755.895 616.586 755.819 616.433C755.753 616.28 755.731 616.122 755.753 615.958C755.786 615.805 755.851 615.668 755.95 615.548C756.059 615.427 756.19 615.345 756.343 615.302C756.496 615.258 756.655 615.28 756.819 615.367C757.3 615.608 757.754 615.761 758.18 615.826C758.617 615.903 758.989 615.941 759.295 615.941C760.027 615.941 760.574 615.761 760.935 615.4C761.307 615.05 761.492 614.526 761.492 613.826V612.35H761.64C761.476 612.908 761.132 613.356 760.607 613.695C760.093 614.023 759.508 614.187 758.852 614.187C758.131 614.187 757.502 614.023 756.966 613.695C756.431 613.356 756.015 612.886 755.72 612.284C755.425 611.683 755.277 610.983 755.277 610.185C755.277 609.584 755.359 609.043 755.523 608.562C755.698 608.07 755.939 607.649 756.245 607.299C756.562 606.949 756.939 606.682 757.376 606.496C757.825 606.299 758.317 606.201 758.852 606.201C759.53 606.201 760.12 606.37 760.623 606.709C761.137 607.037 761.471 607.474 761.624 608.021L761.46 608.431V607.267C761.46 606.928 761.547 606.671 761.722 606.496C761.908 606.321 762.159 606.233 762.476 606.233C762.804 606.233 763.056 606.321 763.231 606.496C763.406 606.671 763.493 606.928 763.493 607.267V613.58C763.493 614.881 763.149 615.859 762.46 616.515C761.771 617.171 760.771 617.499 759.459 617.499ZM759.41 612.629C759.836 612.629 760.202 612.53 760.509 612.334C760.815 612.137 761.05 611.858 761.214 611.497C761.389 611.126 761.476 610.688 761.476 610.185C761.476 609.431 761.29 608.841 760.918 608.414C760.547 607.977 760.044 607.758 759.41 607.758C758.983 607.758 758.617 607.857 758.311 608.054C758.005 608.25 757.765 608.529 757.59 608.89C757.426 609.251 757.344 609.683 757.344 610.185C757.344 610.94 757.529 611.536 757.901 611.973C758.273 612.41 758.776 612.629 759.41 612.629ZM769.274 614.547C768.443 614.547 767.721 614.378 767.109 614.039C766.497 613.7 766.021 613.219 765.682 612.596C765.344 611.962 765.174 611.219 765.174 610.366C765.174 609.721 765.267 609.147 765.453 608.644C765.65 608.13 765.928 607.693 766.289 607.332C766.65 606.96 767.082 606.682 767.585 606.496C768.088 606.299 768.651 606.201 769.274 606.201C770.105 606.201 770.826 606.37 771.438 606.709C772.05 607.048 772.526 607.529 772.865 608.152C773.204 608.775 773.373 609.513 773.373 610.366C773.373 611.011 773.275 611.59 773.078 612.104C772.892 612.618 772.619 613.061 772.258 613.432C771.897 613.793 771.466 614.072 770.963 614.269C770.46 614.454 769.897 614.547 769.274 614.547ZM769.274 612.99C769.678 612.99 770.033 612.891 770.34 612.694C770.646 612.498 770.881 612.208 771.045 611.825C771.22 611.432 771.307 610.945 771.307 610.366C771.307 609.491 771.121 608.841 770.75 608.414C770.378 607.977 769.886 607.758 769.274 607.758C768.869 607.758 768.514 607.857 768.208 608.054C767.902 608.239 767.661 608.529 767.486 608.923C767.322 609.305 767.24 609.786 767.24 610.366C767.24 611.229 767.426 611.885 767.798 612.334C768.17 612.771 768.661 612.99 769.274 612.99ZM776.082 614.498C775.754 614.498 775.502 614.4 775.328 614.203C775.153 614.006 775.065 613.733 775.065 613.383V607.365C775.065 607.004 775.153 606.731 775.328 606.545C775.502 606.348 775.754 606.25 776.082 606.25C776.41 606.25 776.661 606.348 776.836 606.545C777.022 606.731 777.115 607.004 777.115 607.365V613.383C777.115 613.733 777.027 614.006 776.853 614.203C776.678 614.4 776.421 614.498 776.082 614.498ZM776.082 604.725C775.699 604.725 775.399 604.632 775.18 604.446C774.972 604.249 774.868 603.981 774.868 603.642C774.868 603.293 774.972 603.025 775.18 602.839C775.399 602.653 775.699 602.56 776.082 602.56C776.475 602.56 776.776 602.653 776.984 602.839C777.191 603.025 777.295 603.293 777.295 603.642C777.295 603.981 777.191 604.249 776.984 604.446C776.776 604.632 776.475 604.725 776.082 604.725ZM780.262 614.515C779.934 614.515 779.682 614.427 779.507 614.252C779.332 614.066 779.245 613.804 779.245 613.465V607.267C779.245 606.928 779.332 606.671 779.507 606.496C779.682 606.321 779.928 606.233 780.245 606.233C780.562 606.233 780.808 606.321 780.983 606.496C781.158 606.671 781.245 606.928 781.245 607.267V608.382L781.065 607.972C781.306 607.392 781.677 606.955 782.18 606.66C782.694 606.354 783.273 606.201 783.918 606.201C784.563 606.201 785.094 606.321 785.509 606.561C785.924 606.802 786.236 607.168 786.444 607.66C786.651 608.141 786.755 608.753 786.755 609.497V613.465C786.755 613.804 786.668 614.066 786.493 614.252C786.318 614.427 786.067 614.515 785.739 614.515C785.411 614.515 785.154 614.427 784.968 614.252C784.793 614.066 784.705 613.804 784.705 613.465V609.595C784.705 608.972 784.585 608.518 784.345 608.234C784.115 607.95 783.754 607.808 783.262 607.808C782.661 607.808 782.18 607.999 781.819 608.382C781.47 608.753 781.295 609.251 781.295 609.874V613.465C781.295 614.165 780.95 614.515 780.262 614.515ZM792.576 617.499C791.986 617.499 791.412 617.444 790.854 617.335C790.308 617.226 789.81 617.056 789.362 616.827C789.154 616.717 789.012 616.586 788.936 616.433C788.87 616.28 788.848 616.122 788.87 615.958C788.903 615.805 788.968 615.668 789.067 615.548C789.176 615.427 789.307 615.345 789.46 615.302C789.613 615.258 789.772 615.28 789.936 615.367C790.417 615.608 790.871 615.761 791.297 615.826C791.734 615.903 792.106 615.941 792.412 615.941C793.145 615.941 793.691 615.761 794.052 615.4C794.424 615.05 794.609 614.526 794.609 613.826V612.35H794.757C794.593 612.908 794.249 613.356 793.724 613.695C793.21 614.023 792.625 614.187 791.969 614.187C791.248 614.187 790.619 614.023 790.084 613.695C789.548 613.356 789.132 612.886 788.837 612.284C788.542 611.683 788.394 610.983 788.394 610.185C788.394 609.584 788.476 609.043 788.64 608.562C788.815 608.07 789.056 607.649 789.362 607.299C789.679 606.949 790.056 606.682 790.493 606.496C790.942 606.299 791.434 606.201 791.969 606.201C792.647 606.201 793.237 606.37 793.74 606.709C794.254 607.037 794.588 607.474 794.741 608.021L794.577 608.431V607.267C794.577 606.928 794.664 606.671 794.839 606.496C795.025 606.321 795.276 606.233 795.593 606.233C795.921 606.233 796.173 606.321 796.348 606.496C796.523 606.671 796.61 606.928 796.61 607.267V613.58C796.61 614.881 796.266 615.859 795.577 616.515C794.888 617.171 793.888 617.499 792.576 617.499ZM792.527 612.629C792.953 612.629 793.319 612.53 793.626 612.334C793.932 612.137 794.167 611.858 794.331 611.497C794.506 611.126 794.593 610.688 794.593 610.185C794.593 609.431 794.407 608.841 794.036 608.414C793.664 607.977 793.161 607.758 792.527 607.758C792.101 607.758 791.734 607.857 791.428 608.054C791.122 608.25 790.882 608.529 790.707 608.89C790.543 609.251 790.461 609.683 790.461 610.185C790.461 610.94 790.647 611.536 791.018 611.973C791.39 612.41 791.893 612.629 792.527 612.629Z"/>
<circle fill="#20C5BA" r="11.3878" cy="645.824" cx="708.044"/>
<path fill="#002200" d="M738.828 650.988C737.625 650.988 736.592 650.748 735.729 650.267C734.876 649.775 734.22 649.086 733.761 648.201C733.302 647.304 733.072 646.249 733.072 645.036C733.072 644.128 733.203 643.314 733.466 642.592C733.728 641.86 734.105 641.237 734.597 640.723C735.089 640.198 735.69 639.799 736.401 639.526C737.122 639.242 737.931 639.099 738.828 639.099C739.429 639.099 740.02 639.176 740.599 639.329C741.178 639.482 741.687 639.701 742.124 639.985C742.354 640.127 742.507 640.302 742.583 640.51C742.66 640.707 742.676 640.903 742.632 641.1C742.589 641.286 742.496 641.444 742.354 641.576C742.222 641.707 742.053 641.783 741.845 641.805C741.648 641.816 741.43 641.745 741.189 641.592C740.85 641.373 740.484 641.215 740.091 641.116C739.697 641.018 739.298 640.969 738.894 640.969C738.117 640.969 737.461 641.127 736.926 641.444C736.39 641.762 735.986 642.221 735.712 642.822C735.439 643.423 735.302 644.161 735.302 645.036C735.302 645.899 735.439 646.637 735.712 647.249C735.986 647.862 736.39 648.326 736.926 648.643C737.461 648.96 738.117 649.119 738.894 649.119C739.309 649.119 739.719 649.07 740.123 648.971C740.528 648.862 740.911 648.698 741.271 648.479C741.512 648.337 741.725 648.277 741.911 648.299C742.108 648.31 742.272 648.376 742.403 648.496C742.534 648.616 742.621 648.769 742.665 648.955C742.709 649.13 742.698 649.316 742.632 649.512C742.567 649.698 742.436 649.862 742.239 650.004C741.802 650.321 741.277 650.567 740.665 650.742C740.063 650.906 739.451 650.988 738.828 650.988ZM747.479 650.988C746.648 650.988 745.926 650.819 745.314 650.48C744.702 650.141 744.226 649.66 743.887 649.037C743.548 648.403 743.379 647.659 743.379 646.807C743.379 646.162 743.472 645.588 743.658 645.085C743.855 644.571 744.133 644.134 744.494 643.773C744.855 643.401 745.287 643.123 745.79 642.937C746.292 642.74 746.855 642.642 747.479 642.642C748.309 642.642 749.031 642.811 749.643 643.15C750.255 643.489 750.731 643.97 751.07 644.593C751.409 645.216 751.578 645.954 751.578 646.807C751.578 647.452 751.48 648.031 751.283 648.545C751.097 649.059 750.824 649.502 750.463 649.873C750.102 650.234 749.671 650.513 749.168 650.71C748.665 650.895 748.102 650.988 747.479 650.988ZM747.479 649.43C747.883 649.43 748.238 649.332 748.544 649.135C748.851 648.939 749.086 648.649 749.25 648.266C749.425 647.873 749.512 647.386 749.512 646.807C749.512 645.932 749.326 645.282 748.954 644.855C748.583 644.418 748.091 644.199 747.479 644.199C747.074 644.199 746.719 644.298 746.413 644.495C746.107 644.68 745.866 644.97 745.691 645.364C745.527 645.746 745.445 646.227 745.445 646.807C745.445 647.67 745.631 648.326 746.003 648.775C746.374 649.212 746.866 649.43 747.479 649.43ZM754.32 650.956C753.992 650.956 753.74 650.868 753.565 650.693C753.39 650.507 753.303 650.245 753.303 649.906V643.707C753.303 643.369 753.39 643.112 753.565 642.937C753.74 642.762 753.986 642.674 754.303 642.674C754.62 642.674 754.866 642.762 755.041 642.937C755.216 643.112 755.303 643.369 755.303 643.707V644.905L755.123 644.413C755.342 643.866 755.681 643.434 756.14 643.117C756.599 642.8 757.146 642.642 757.78 642.642C758.425 642.642 758.955 642.795 759.37 643.101C759.786 643.407 760.075 643.877 760.239 644.511H760.01C760.228 643.932 760.589 643.478 761.092 643.15C761.595 642.811 762.174 642.642 762.83 642.642C763.443 642.642 763.945 642.762 764.339 643.002C764.743 643.243 765.044 643.609 765.241 644.101C765.438 644.582 765.536 645.194 765.536 645.938V649.906C765.536 650.245 765.443 650.507 765.257 650.693C765.082 650.868 764.831 650.956 764.503 650.956C764.175 650.956 763.924 650.868 763.749 650.693C763.574 650.507 763.486 650.245 763.486 649.906V646.02C763.486 645.407 763.382 644.959 763.175 644.675C762.978 644.391 762.639 644.249 762.158 644.249C761.622 644.249 761.201 644.44 760.895 644.823C760.589 645.194 760.436 645.714 760.436 646.38V649.906C760.436 650.245 760.349 650.507 760.174 650.693C759.999 650.868 759.747 650.956 759.419 650.956C759.091 650.956 758.835 650.868 758.649 650.693C758.474 650.507 758.386 650.245 758.386 649.906V646.02C758.386 645.407 758.282 644.959 758.075 644.675C757.878 644.391 757.545 644.249 757.074 644.249C756.539 644.249 756.118 644.44 755.812 644.823C755.506 645.194 755.353 645.714 755.353 646.38V649.906C755.353 650.606 755.008 650.956 754.32 650.956ZM768.667 653.907C768.339 653.907 768.088 653.82 767.913 653.645C767.738 653.47 767.651 653.213 767.651 652.874V643.707C767.651 643.369 767.738 643.112 767.913 642.937C768.088 642.762 768.334 642.674 768.651 642.674C768.979 642.674 769.23 642.762 769.405 642.937C769.58 643.112 769.668 643.369 769.668 643.707V644.987L769.487 644.495C769.651 643.937 769.985 643.489 770.488 643.15C771.001 642.811 771.597 642.642 772.275 642.642C772.975 642.642 773.587 642.811 774.112 643.15C774.647 643.489 775.063 643.97 775.358 644.593C775.653 645.205 775.801 645.943 775.801 646.807C775.801 647.659 775.653 648.403 775.358 649.037C775.063 649.66 774.653 650.141 774.128 650.48C773.603 650.819 772.986 650.988 772.275 650.988C771.608 650.988 771.023 650.824 770.52 650.496C770.017 650.157 769.679 649.72 769.504 649.185H769.7V652.874C769.7 653.213 769.608 653.47 769.422 653.645C769.247 653.82 768.995 653.907 768.667 653.907ZM771.701 649.43C772.106 649.43 772.461 649.332 772.767 649.135C773.073 648.939 773.308 648.649 773.472 648.266C773.647 647.873 773.734 647.386 773.734 646.807C773.734 645.932 773.549 645.282 773.177 644.855C772.805 644.418 772.313 644.199 771.701 644.199C771.297 644.199 770.941 644.298 770.635 644.495C770.329 644.68 770.089 644.97 769.914 645.364C769.75 645.746 769.668 646.227 769.668 646.807C769.668 647.67 769.853 648.326 770.225 648.775C770.597 649.212 771.089 649.43 771.701 649.43ZM780.222 650.988C779.314 650.988 778.631 650.731 778.172 650.218C777.713 649.693 777.483 648.928 777.483 647.922V640.165C777.483 639.826 777.571 639.57 777.746 639.395C777.921 639.22 778.172 639.132 778.5 639.132C778.828 639.132 779.079 639.22 779.254 639.395C779.44 639.57 779.533 639.826 779.533 640.165V647.823C779.533 648.326 779.637 648.698 779.845 648.939C780.063 649.179 780.369 649.299 780.763 649.299C780.85 649.299 780.932 649.299 781.009 649.299C781.085 649.288 781.162 649.277 781.239 649.266C781.392 649.245 781.495 649.288 781.55 649.398C781.605 649.496 781.632 649.704 781.632 650.021C781.632 650.294 781.577 650.507 781.468 650.66C781.359 650.813 781.178 650.906 780.927 650.939C780.818 650.95 780.703 650.961 780.583 650.972C780.462 650.983 780.342 650.988 780.222 650.988ZM786.592 650.988C785.684 650.988 784.903 650.819 784.247 650.48C783.591 650.141 783.083 649.66 782.722 649.037C782.372 648.414 782.197 647.676 782.197 646.823C782.197 645.992 782.366 645.265 782.705 644.642C783.055 644.019 783.531 643.533 784.132 643.183C784.744 642.822 785.438 642.642 786.215 642.642C786.783 642.642 787.291 642.734 787.74 642.92C788.199 643.106 788.587 643.374 788.904 643.724C789.232 644.074 789.478 644.5 789.642 645.003C789.817 645.495 789.904 646.052 789.904 646.676C789.904 646.872 789.833 647.025 789.691 647.135C789.56 647.233 789.369 647.282 789.117 647.282H783.853V646.102H788.461L788.199 646.348C788.199 645.845 788.122 645.424 787.969 645.085C787.827 644.746 787.614 644.489 787.33 644.314C787.056 644.128 786.712 644.035 786.297 644.035C785.837 644.035 785.444 644.145 785.116 644.363C784.799 644.571 784.553 644.872 784.378 645.265C784.214 645.648 784.132 646.107 784.132 646.643V646.758C784.132 647.654 784.34 648.326 784.755 648.775C785.182 649.212 785.805 649.43 786.625 649.43C786.909 649.43 787.226 649.398 787.576 649.332C787.936 649.256 788.275 649.13 788.592 648.955C788.822 648.824 789.024 648.769 789.199 648.791C789.374 648.802 789.511 648.862 789.609 648.971C789.718 649.081 789.784 649.217 789.806 649.381C789.828 649.534 789.795 649.693 789.707 649.857C789.631 650.021 789.494 650.163 789.298 650.283C788.915 650.524 788.472 650.704 787.969 650.824C787.477 650.934 787.018 650.988 786.592 650.988ZM795.169 650.988C794.458 650.988 793.862 650.868 793.381 650.628C792.911 650.387 792.561 650.037 792.332 649.578C792.102 649.108 791.988 648.529 791.988 647.84V644.347H791.135C790.872 644.347 790.67 644.281 790.528 644.15C790.386 644.008 790.315 643.817 790.315 643.576C790.315 643.325 790.386 643.133 790.528 643.002C790.67 642.871 790.872 642.806 791.135 642.806H791.988V641.313C791.988 640.974 792.075 640.717 792.25 640.543C792.436 640.368 792.693 640.28 793.021 640.28C793.349 640.28 793.6 640.368 793.775 640.543C793.95 640.717 794.037 640.974 794.037 641.313V642.806H795.776C796.038 642.806 796.24 642.871 796.382 643.002C796.524 643.133 796.595 643.325 796.595 643.576C796.595 643.817 796.524 644.008 796.382 644.15C796.24 644.281 796.038 644.347 795.776 644.347H794.037V647.725C794.037 648.25 794.152 648.643 794.382 648.906C794.611 649.168 794.983 649.299 795.497 649.299C795.683 649.299 795.847 649.283 795.989 649.25C796.131 649.217 796.257 649.195 796.366 649.185C796.497 649.174 796.606 649.217 796.694 649.316C796.781 649.403 796.825 649.589 796.825 649.873C796.825 650.092 796.787 650.289 796.71 650.464C796.645 650.628 796.519 650.742 796.333 650.808C796.191 650.852 796.005 650.89 795.776 650.923C795.546 650.966 795.344 650.988 795.169 650.988ZM801.661 650.988C800.754 650.988 799.972 650.819 799.316 650.48C798.66 650.141 798.152 649.66 797.791 649.037C797.441 648.414 797.266 647.676 797.266 646.823C797.266 645.992 797.436 645.265 797.775 644.642C798.124 644.019 798.6 643.533 799.201 643.183C799.813 642.822 800.508 642.642 801.284 642.642C801.852 642.642 802.361 642.734 802.809 642.92C803.268 643.106 803.656 643.374 803.973 643.724C804.301 644.074 804.547 644.5 804.711 645.003C804.886 645.495 804.973 646.052 804.973 646.676C804.973 646.872 804.902 647.025 804.76 647.135C804.629 647.233 804.438 647.282 804.186 647.282H798.922V646.102H803.53L803.268 646.348C803.268 645.845 803.192 645.424 803.038 645.085C802.896 644.746 802.683 644.489 802.399 644.314C802.126 644.128 801.781 644.035 801.366 644.035C800.907 644.035 800.513 644.145 800.185 644.363C799.868 644.571 799.622 644.872 799.447 645.265C799.283 645.648 799.201 646.107 799.201 646.643V646.758C799.201 647.654 799.409 648.326 799.824 648.775C800.251 649.212 800.874 649.43 801.694 649.43C801.978 649.43 802.295 649.398 802.645 649.332C803.006 649.256 803.345 649.13 803.662 648.955C803.891 648.824 804.093 648.769 804.268 648.791C804.443 648.802 804.58 648.862 804.678 648.971C804.788 649.081 804.853 649.217 804.875 649.381C804.897 649.534 804.864 649.693 804.777 649.857C804.7 650.021 804.564 650.163 804.367 650.283C803.984 650.524 803.541 650.704 803.038 650.824C802.547 650.934 802.087 650.988 801.661 650.988ZM809.68 650.988C808.98 650.988 808.362 650.819 807.827 650.48C807.302 650.141 806.892 649.66 806.597 649.037C806.302 648.403 806.154 647.659 806.154 646.807C806.154 645.943 806.302 645.205 806.597 644.593C806.892 643.97 807.302 643.489 807.827 643.15C808.362 642.811 808.98 642.642 809.68 642.642C810.347 642.642 810.926 642.806 811.418 643.133C811.921 643.461 812.26 643.893 812.435 644.429H812.254V640.165C812.254 639.826 812.342 639.57 812.517 639.395C812.692 639.22 812.943 639.132 813.271 639.132C813.599 639.132 813.85 639.22 814.025 639.395C814.211 639.57 814.304 639.826 814.304 640.165V649.906C814.304 650.245 814.217 650.507 814.042 650.693C813.867 650.868 813.615 650.956 813.287 650.956C812.959 650.956 812.708 650.868 812.533 650.693C812.358 650.507 812.271 650.245 812.271 649.906V648.627L812.451 649.119C812.287 649.687 811.954 650.141 811.451 650.48C810.948 650.819 810.358 650.988 809.68 650.988ZM810.254 649.43C810.658 649.43 811.013 649.332 811.32 649.135C811.626 648.939 811.861 648.649 812.025 648.266C812.2 647.873 812.287 647.386 812.287 646.807C812.287 645.932 812.101 645.282 811.73 644.855C811.358 644.418 810.866 644.199 810.254 644.199C809.849 644.199 809.494 644.298 809.188 644.495C808.882 644.68 808.641 644.97 808.466 645.364C808.302 645.746 808.22 646.227 808.22 646.807C808.22 647.67 808.406 648.326 808.778 648.775C809.149 649.212 809.641 649.43 810.254 649.43Z"/>
</g>
</g>
<rect stroke-width="5" stroke="white" rx="17.5" height="648" width="385" y="112.5" x="636.157"/>
</g>
<circle fill="#FBBF24" r="40" cy="104" cx="736.657"/>
<defs>
<filter color-interpolation-filters="sRGB" filterUnits="userSpaceOnUse" height="703" width="430" y="100" x="613.657" id="filter0_dd_2012_154">
<feFlood result="BackgroundImageFix" flood-opacity="0"/>
<feColorMatrix result="hardAlpha" values="0 0 0 0 0 0 0 0 0 0 0 0 0 0 0 0 0 0 127 0" type="matrix" in="SourceAlpha"/>
<feOffset/>
<feGaussianBlur stdDeviation="5"/>
<feColorMatrix values="0 0 0 0 0 0 0 0 0 0 0 0 0 0 0 0 0 0 0.07 0" type="matrix"/>
<feBlend result="effect1_dropShadow_2012_154" in2="BackgroundImageFix" mode="normal"/>
<feColorMatrix result="hardAlpha" values="0 0 0 0 0 0 0 0 0 0 0 0 0 0 0 0 0 0 127 0" type="matrix" in="SourceAlpha"/>
<feMorphology result="effect2_dropShadow_2012_154" in="SourceAlpha" operator="erode" radius="5"/>
<feOffset dy="20"/>
<feGaussianBlur stdDeviation="12.5"/>
<feColorMatrix values="0 0 0 0 0 0 0 0 0 0 0 0 0 0 0 0 0 0 0.1 0" type="matrix"/>
<feBlend result="effect2_dropShadow_2012_154" in2="effect1_dropShadow_2012_154" mode="normal"/>
<feBlend result="shape" in2="effect2_dropShadow_2012_154" in="SourceGraphic" mode="normal"/>
</filter>
<filter color-interpolation-filters="sRGB" filterUnits="userSpaceOnUse" height="617.212" width="404" y="135" x="626.657" id="filter1_dd_2012_154">
<feFlood result="BackgroundImageFix" flood-opacity="0"/>
<feColorMatrix result="hardAlpha" values="0 0 0 0 0 0 0 0 0 0 0 0 0 0 0 0 0 0 127 0" type="matrix" in="SourceAlpha"/>
<feOffset/>
<feGaussianBlur stdDeviation="7.5"/>
<feComposite operator="out" in2="hardAlpha"/>
<feColorMatrix values="0 0 0 0 0.0980392 0 0 0 0 0.505882 0 0 0 0 0.478431 0 0 0 0.07 0" type="matrix"/>
<feBlend result="effect1_dropShadow_2012_154" in2="BackgroundImageFix" mode="normal"/>
<feColorMatrix result="hardAlpha" values="0 0 0 0 0 0 0 0 0 0 0 0 0 0 0 0 0 0 127 0" type="matrix" in="SourceAlpha"/>
<feMorphology result="effect2_dropShadow_2012_154" in="SourceAlpha" operator="erode" radius="12"/>
<feOffset dy="25"/>
<feGaussianBlur stdDeviation="25"/>
<feColorMatrix values="0 0 0 0 0.0980392 0 0 0 0 0.505882 0 0 0 0 0.478431 0 0 0 0.25 0" type="matrix"/>
<feBlend result="effect2_dropShadow_2012_154" in2="effect1_dropShadow_2012_154" mode="normal"/>
<feBlend result="shape" in2="effect2_dropShadow_2012_154" in="SourceGraphic" mode="normal"/>
</filter>
<clipPath transform="translate(-626.657 -135)" id="bgblur_1_2012_154_clip_path"><rect rx="15.2222" height="539.212" width="328" y="150" x="664.657"/>
</clipPath><clipPath id="clip0_2012_154">
<rect fill="white" rx="20" height="653" width="390" y="110" x="633.657"/>
</clipPath>
</defs>
</svg>