<svg width="370" height="272" viewBox="0 0 370 272" fill="none" xmlns="http://www.w3.org/2000/svg">
<path d="M313.817 251.369H62.9913C51.134 244.374 41.6176 234.475 38.7711 221.209C35.1056 199.616 58.7881 185.936 85.7734 153.847C101.19 135.51 98.0845 133.953 111.109 117.36C132.482 90.1282 143.175 76.5122 159.702 68.3475C189.302 53.7325 231.79 57.8642 255.098 79.8989C267.552 91.6723 263.785 98.246 284.017 120.522C300.995 139.22 307.527 138.86 317.149 154.025C320.617 159.491 331.564 177.276 330.985 202.339C330.405 227.507 318.548 245.067 313.817 251.369Z" fill="#EEF6FA"/>
<path d="M291.977 117.35C295.197 117.35 297.808 114.646 297.808 111.309C297.808 107.973 295.197 105.269 291.977 105.269C288.756 105.269 286.146 107.973 286.146 111.309C286.146 114.646 288.756 117.35 291.977 117.35Z" fill="#20C5BA"/>
<path d="M162.803 113.887C165.012 113.887 166.804 112.032 166.804 109.743C166.804 107.454 165.012 105.599 162.803 105.599C160.593 105.599 158.802 107.454 158.802 109.743C158.802 112.032 160.593 113.887 162.803 113.887Z" fill="#20C5BA"/>
<path d="M26.0825 250.257H338.765V252.479H26.0825V250.257Z" fill="#311716"/>
<path d="M69.73 162.278C71.1781 162.278 72.352 161.062 72.352 159.562C72.352 158.063 71.1781 156.847 69.73 156.847C68.2819 156.847 67.1079 158.063 67.1079 159.562C67.1079 161.062 68.2819 162.278 69.73 162.278Z" fill="#20C5BA"/>
<path d="M324.315 201.896C326.263 201.896 327.842 200.259 327.842 198.24C327.842 196.221 326.263 194.584 324.315 194.584C322.367 194.584 320.788 196.221 320.788 198.24C320.788 200.259 322.367 201.896 324.315 201.896Z" fill="#20C5BA"/>
<path d="M66.2052 223.772C68.0811 223.772 69.6018 222.197 69.6018 220.255C69.6018 218.312 68.0811 216.737 66.2052 216.737C64.3293 216.737 62.8086 218.312 62.8086 220.255C62.8086 222.197 64.3293 223.772 66.2052 223.772Z" fill="#FFCBC0"/>
<mask id="mask0_82_13653" style="mask-type:luminance" maskUnits="userSpaceOnUse" x="150" y="123" width="197" height="128">
<path d="M150.676 123.05H346.517V250.372H150.676V123.05Z" fill="white"/>
</mask>
<g mask="url(#mask0_82_13653)">
<path d="M268.447 318.137H189.778C184.902 318.131 180.228 316.192 176.779 312.745C173.331 309.298 171.391 304.624 171.384 299.748V157.101C171.389 152.224 173.329 147.549 176.777 144.1C180.225 140.652 184.901 138.712 189.778 138.707H268.447C273.324 138.712 277.999 140.652 281.448 144.1C284.896 147.549 286.836 152.224 286.841 157.101V299.748C286.834 304.624 284.893 309.298 281.445 312.745C277.997 316.192 273.323 318.131 268.447 318.137ZM189.778 140.939C185.493 140.945 181.385 142.649 178.356 145.679C175.326 148.709 173.621 152.816 173.616 157.101V299.748C173.621 304.033 175.326 308.141 178.356 311.171C181.385 314.2 185.493 315.905 189.778 315.91H268.447C272.732 315.905 276.84 314.201 279.87 311.171C282.9 308.141 284.604 304.033 284.609 299.748V157.101C284.604 152.816 282.9 148.708 279.87 145.678C276.84 142.648 272.732 140.944 268.447 140.939H189.778Z" fill="#20C5BA"/>
<path d="M172.501 172.123H257.517V174.357H172.501V172.123Z" fill="#20C5BA"/>
<path d="M191.793 158.008C192.229 155.736 190.741 153.541 188.469 153.105C186.198 152.669 184.002 154.157 183.566 156.428C183.13 158.7 184.618 160.895 186.89 161.331C189.161 161.768 191.357 160.28 191.793 158.008Z" fill="#20C5BA"/>
<path d="M208.25 158.481C208.955 156.278 207.741 153.92 205.537 153.215C203.334 152.51 200.977 153.724 200.272 155.927C199.566 158.13 200.781 160.488 202.984 161.193C205.187 161.898 207.544 160.684 208.25 158.481Z" fill="#20C5BA"/>
<path d="M224.87 158.419C225.537 156.204 224.283 153.868 222.068 153.2C219.853 152.533 217.517 153.787 216.849 156.002C216.182 158.217 217.436 160.553 219.651 161.221C221.866 161.888 224.202 160.634 224.87 158.419Z" fill="#20C5BA"/>
</g>
<path d="M226.464 244.28C221.398 244.278 216.446 242.774 212.234 239.958C208.022 237.142 204.74 233.14 202.803 228.458C200.865 223.777 200.359 218.626 201.349 213.657C202.339 208.688 204.779 204.124 208.363 200.543C211.946 196.961 216.511 194.522 221.48 193.534C226.449 192.546 231.6 193.054 236.28 194.994C240.961 196.933 244.962 200.216 247.776 204.429C250.591 208.642 252.093 213.595 252.093 218.661C252.084 225.455 249.381 231.967 244.576 236.77C239.771 241.573 233.258 244.274 226.464 244.28ZM226.464 198.168C222.411 198.168 218.448 199.37 215.077 201.623C211.707 203.875 209.08 207.076 207.529 210.821C205.978 214.566 205.572 218.687 206.363 222.663C207.154 226.639 209.106 230.291 211.973 233.157C214.839 236.023 218.492 237.975 222.467 238.766C226.443 239.556 230.564 239.15 234.309 237.598C238.054 236.047 241.255 233.419 243.507 230.049C245.759 226.678 246.96 222.715 246.96 218.661C246.954 213.228 244.793 208.018 240.95 204.176C237.108 200.334 231.898 198.173 226.464 198.168Z" fill="#20C5BA"/>
<path d="M239.701 224.912C239.5 224.912 239.3 224.88 239.109 224.818L225.1 220.208L220.826 211.195C220.719 210.97 220.658 210.726 220.645 210.478C220.632 210.229 220.669 209.981 220.752 209.746C220.836 209.512 220.965 209.296 221.132 209.111C221.298 208.927 221.5 208.777 221.725 208.67C221.95 208.563 222.193 208.502 222.442 208.489C222.69 208.477 222.939 208.513 223.173 208.597C223.408 208.68 223.623 208.809 223.808 208.976C223.993 209.143 224.143 209.344 224.249 209.569L227.829 217.115L240.293 221.214C240.725 221.351 241.094 221.639 241.332 222.026C241.571 222.412 241.662 222.871 241.59 223.319C241.519 223.767 241.288 224.175 240.942 224.468C240.595 224.76 240.154 224.919 239.701 224.914V224.912Z" fill="#20C5BA"/>
<path d="M264.469 199.162C265.731 189.572 258.981 180.775 249.391 179.512C239.801 178.25 231.004 185 229.742 194.59C228.479 204.179 235.229 212.977 244.819 214.239C254.409 215.502 263.206 208.751 264.469 199.162Z" fill="#2B2B2B"/>
<path d="M237.843 201.535L242.939 194.737C243.225 194.368 243.457 193.96 243.628 193.526C243.783 193.154 243.866 192.757 243.874 192.354V192.335C243.889 192.085 243.852 191.835 243.763 191.601C243.675 191.367 243.538 191.155 243.361 190.978C242.958 190.63 242.435 190.453 241.903 190.485C241.371 190.462 240.851 190.652 240.458 191.012C240.064 191.416 239.825 191.945 239.782 192.507H237.661C237.754 191.747 238.006 191.015 238.401 190.359C238.753 189.786 239.251 189.318 239.844 189.002C240.475 188.682 241.176 188.521 241.884 188.536C242.648 188.516 243.407 188.669 244.104 188.982C244.697 189.26 245.189 189.715 245.512 190.285C245.852 190.917 246.022 191.627 246.005 192.344C245.998 192.9 245.89 193.449 245.685 193.965C245.46 194.545 245.159 195.093 244.789 195.593L240.557 201.343H246.087V203.294H237.843V201.535ZM247.9 199.293L252.806 188.706H254.917L250.12 199.172H257.288V201.081H247.9V199.293ZM254.202 194.717H256.203V203.324H254.202V194.717Z" fill="white"/>
<path d="M97.5591 132.809V84.8918C97.5591 80.4575 93.9644 76.8628 89.5301 76.8628H32.8387C28.4044 76.8628 24.8097 80.4575 24.8097 84.8918V132.809C24.8097 137.244 28.4044 140.838 32.8387 140.838H89.5301C93.9644 140.838 97.5591 137.244 97.5591 132.809Z" fill="white"/>
<path d="M89.2388 142.165H33.132C30.5721 142.163 28.1178 141.144 26.3081 139.334C24.4985 137.523 23.4813 135.068 23.48 132.508V85.1829C23.4819 82.6233 24.4994 80.1692 26.309 78.3591C28.1186 76.549 30.5725 75.5309 33.132 75.5283H89.2388C91.7971 75.5316 94.2496 76.5493 96.0585 78.3582C97.8675 80.1672 98.8852 82.6197 98.8884 85.1779V132.508C98.8871 135.068 97.8703 137.522 96.0611 139.333C94.252 141.143 91.7984 142.162 89.2388 142.165ZM33.132 78.1899C31.2793 78.1938 29.5036 78.932 28.1942 80.2428C26.8848 81.5536 26.1484 83.3301 26.1464 85.1829V132.508C26.1484 134.362 26.8858 136.14 28.1968 137.451C29.5078 138.762 31.2854 139.499 33.1394 139.501H89.2388C91.0925 139.499 92.8694 138.761 94.1799 137.45C95.4904 136.139 96.2274 134.362 96.2294 132.508V85.1829C96.2274 83.3292 95.4904 81.552 94.1799 80.2411C92.8694 78.9301 91.0925 78.1925 89.2388 78.1899H33.132Z" fill="#FFCBC0"/>
<path d="M62.3643 87.1929H97.2676V89.8519H62.3643V87.1929Z" fill="#FFCBC0"/>
<path d="M87.6185 81.9415C87.6185 82.283 87.7197 82.6168 87.9095 82.9008C88.0992 83.1847 88.3689 83.4061 88.6844 83.5367C88.9999 83.6674 89.347 83.7016 89.682 83.635C90.0169 83.5684 90.3246 83.4039 90.5661 83.1624C90.8076 82.921 90.972 82.6133 91.0386 82.2784C91.1052 81.9434 91.0711 81.5963 90.9404 81.2807C90.8097 80.9652 90.5884 80.6956 90.3044 80.5058C90.0205 80.3161 89.6866 80.2148 89.3451 80.2148C88.8872 80.2148 88.448 80.3968 88.1242 80.7206C87.8004 81.0444 87.6185 81.4836 87.6185 81.9415ZM80.8055 81.9415C80.8055 82.283 80.9068 82.6168 81.0965 82.9008C81.2863 83.1847 81.5559 83.4061 81.8714 83.5367C82.1869 83.6674 82.5341 83.7016 82.8691 83.635C83.204 83.5684 83.5117 83.4039 83.7531 83.1624C83.9946 82.921 84.1591 82.6133 84.2257 82.2784C84.2923 81.9434 84.2581 81.5963 84.1274 81.2807C83.9967 80.9652 83.7754 80.6956 83.4915 80.5058C83.2075 80.3161 82.8737 80.2148 82.5322 80.2148C82.0743 80.2148 81.6351 80.3968 81.3113 80.7206C80.9875 81.0444 80.8055 81.4836 80.8055 81.9415ZM74 81.9415C74 82.283 74.1013 82.6168 74.291 82.9008C74.4807 83.1847 74.7504 83.4061 75.0659 83.5367C75.3814 83.6674 75.7286 83.7016 76.0635 83.635C76.3985 83.5684 76.7061 83.4039 76.9476 83.1624C77.1891 82.921 77.3535 82.6133 77.4202 82.2784C77.4868 81.9434 77.4526 81.5963 77.3219 81.2807C77.1912 80.9652 76.9699 80.6956 76.6859 80.5058C76.402 80.3161 76.0682 80.2148 75.7267 80.2148C75.2687 80.2148 74.8295 80.3968 74.5057 80.7206C74.1819 81.0444 74 81.4836 74 81.9415Z" fill="#20C5BA"/>
<path d="M76.5207 119.731C80.3462 111.226 76.5534 101.231 68.0493 97.4058C59.5451 93.5803 49.55 97.3731 45.7245 105.877C41.899 114.381 45.6918 124.377 54.196 128.202C62.7001 132.028 72.6953 128.235 76.5207 119.731Z" fill="#20C5BA"/>
<path d="M60.9559 100.352C60.6968 99.9512 60.3472 99.6163 59.9352 99.3747C59.5232 99.133 59.0603 98.9914 58.5836 98.9612C58.1069 98.931 57.6298 99.013 57.1906 99.2006C56.7514 99.3883 56.3623 99.6764 56.0546 100.042C54.8692 101.443 54.0572 103.121 53.694 104.921C53.6767 105.005 53.6545 105.084 53.6323 105.167C52.7863 108.09 53.4547 112.163 55.6821 115.962C57.9095 119.76 61.1359 122.333 64.1009 123.024L64.3475 123.09C66.1003 123.654 67.9672 123.764 69.7742 123.411C70.2426 123.321 70.6835 123.123 71.0616 122.832C71.4396 122.542 71.7443 122.166 71.9513 121.737C72.1582 121.307 72.2616 120.835 72.2532 120.358C72.2448 119.881 72.1249 119.413 71.9029 118.991C71.6365 118.497 71.3381 117.969 71.0001 117.444L70.9779 117.409C70.5402 116.742 69.8585 116.273 69.0789 116.102C68.2993 115.931 67.4837 116.072 66.8068 116.494C65.972 117.013 65.0433 117.361 64.0737 117.52C63.801 117.564 63.5259 117.592 63.2499 117.604C62.7829 117.627 62.317 117.541 61.8889 117.354C61.4609 117.166 61.0823 116.881 60.7832 116.521C60.1251 115.733 59.5335 114.892 59.0146 114.005C58.4963 113.12 58.0508 112.193 57.6826 111.235C57.516 110.801 57.4516 110.334 57.4943 109.871C57.5371 109.408 57.6859 108.961 57.9293 108.564C58.5954 107.497 59.5224 106.618 60.6229 106.009C61.3275 105.619 61.8506 104.968 62.079 104.195C62.3075 103.423 62.223 102.592 61.8439 101.882C61.6482 101.517 61.4352 101.145 61.205 100.767L60.9559 100.352Z" fill="white"/>
<path d="M145.518 98.1892C144.988 98.1855 144.464 98.073 143.979 97.8588C143.494 97.6445 143.059 97.333 142.699 96.9436C142.079 96.303 141.677 95.4831 141.551 94.6007C141.425 93.7183 141.58 92.8186 141.996 92.03L152.748 71.0633C152.678 70.4351 152.643 69.8035 152.642 69.1714V36.2364C152.642 26.9766 159.872 19.4434 168.757 19.4434H244.821C253.701 19.4434 260.936 26.9766 260.936 36.2364V69.1689C260.936 78.4263 253.706 85.9595 244.821 85.9595H173.083L147.183 97.8192C146.662 98.0618 146.094 98.1881 145.518 98.1892ZM168.757 20.4646C160.434 20.4646 153.663 27.539 153.663 36.2364V69.1689C153.665 69.8136 153.704 70.4577 153.782 71.0978L153.799 71.2508L142.906 92.4962C142.587 93.0974 142.467 93.7842 142.562 94.4582C142.657 95.1321 142.963 95.7586 143.436 96.248C143.848 96.6953 144.391 96.9997 144.987 97.1168C145.584 97.234 146.202 97.1577 146.752 96.8992L172.861 84.9482H244.821C253.144 84.9482 259.915 77.8738 259.915 69.1788V36.2364C259.915 27.539 253.144 20.4646 244.821 20.4646H168.757Z" fill="#20C5BA"/>
<path d="M240.194 46.2487C240.194 46.076 240.194 45.9009 240.167 45.7282L240.105 45.2077L240.039 44.6873L239.935 44.1668L239.829 43.6463C239.792 43.4737 239.735 43.301 239.688 43.1283C239.596 42.7761 239.484 42.4294 239.353 42.0899C238.82 40.6367 238.087 39.2645 237.177 38.0125C236.141 36.591 234.938 35.2991 233.593 34.1645C232.042 32.8513 230.361 31.6992 228.576 30.7259L227.853 30.3337L227.671 30.2351L227.483 30.1413L227.101 29.9563L226.336 29.5839C226.208 29.5197 226.072 29.463 225.942 29.4038L225.539 29.2287L224.735 28.8784C224.462 28.7649 224.178 28.6564 223.897 28.5479L223.051 28.2223L222.172 27.9213L221.733 27.7709C221.585 27.7215 221.442 27.6697 221.289 27.6253L220.379 27.3466L219.92 27.2109C219.844 27.1887 219.77 27.1641 219.691 27.1443L219.457 27.0827L218.512 26.836L218.041 26.7151C217.883 26.6732 217.718 26.6387 217.547 26.6017L216.578 26.3846L216.085 26.2785L215.591 26.1848L214.605 26.0023C211.871 25.5287 209.107 25.2534 206.334 25.1784C205.631 25.1784 204.928 25.1611 204.227 25.1611L203.174 25.1833L202.646 25.1957C202.471 25.1957 202.296 25.1957 202.121 25.2129L201.073 25.2746L200.288 25.3215L200.027 25.3437L198.988 25.4399C198.643 25.4719 198.295 25.5015 197.955 25.5459C195.297 25.851 192.666 26.3531 190.084 27.0481L189.156 27.2948C188.855 27.3836 188.554 27.4773 188.258 27.5711C187.962 27.6648 187.659 27.7561 187.365 27.8547L186.504 28.168L186.073 28.3209C185.93 28.3727 185.787 28.4221 185.649 28.4788L184.82 28.8044L184.408 28.9697L184.203 29.0535L184.006 29.1423L183.216 29.4926C182.168 29.9613 181.179 30.4645 180.256 30.9923L179.904 31.1872L179.566 31.3895L178.895 31.7965L178.562 32.0012L178.246 32.2133L177.6 32.6302C177.496 32.7017 177.388 32.7708 177.289 32.8423L176.993 33.0619L176.403 33.4985C176.204 33.644 176.024 33.7945 175.841 33.9449L175.298 34.3963C175.113 34.5443 174.946 34.6997 174.778 34.8551L174.285 35.3164C174.203 35.3953 174.114 35.4693 174.038 35.5483L173.806 35.7949L173.35 36.2685C173.273 36.3499 173.192 36.4264 173.123 36.5152L172.911 36.7619L172.496 37.2429L172.292 37.4895L172.104 37.7362L171.732 38.2295L171.547 38.4762C171.487 38.5576 171.436 38.6415 171.379 38.7229L171.048 39.2162C170.819 39.5467 170.641 39.8847 170.444 40.2201C170.353 40.3879 170.247 40.5531 170.168 40.7135L169.921 41.2216C169.842 41.3918 169.753 41.5595 169.674 41.7297L169.472 42.2428L169.275 42.7534L169.117 43.2689L168.959 43.782C168.91 43.9522 168.878 44.1249 168.836 44.2975C168.53 45.6405 168.415 47.0196 168.493 48.3947C168.565 49.5043 168.759 50.6028 169.07 51.6704H172.38C172.231 50.6204 172.207 49.5564 172.309 48.5007C172.613 45.8614 173.601 43.3472 175.175 41.2068C176.825 38.8832 179.191 36.715 182.185 34.8551C185.51 32.8336 189.125 31.336 192.905 30.4151C195.006 29.8872 197.141 29.5064 199.294 29.2755C201.516 29.0354 203.752 28.9472 205.986 29.0116C208.201 29.0724 210.409 29.285 212.594 29.648C214.678 29.9897 216.733 30.4844 218.744 31.128C222.624 32.3786 225.971 34.1176 228.61 36.1353C229.868 37.0837 231.025 38.1581 232.064 39.342C232.995 40.4078 233.793 41.5822 234.442 42.8397C235.631 45.1209 236.16 47.689 235.969 50.2545C235.926 50.7281 235.86 51.1993 235.771 51.6679H239.432C239.58 51.2371 239.708 50.8013 239.817 50.3606C240.137 49.0149 240.265 47.6303 240.194 46.2487Z" fill="#311716"/>
<path d="M236.166 58.7549C234.353 68.7918 216.474 73.6536 204.528 73.5722C193.194 73.4957 175.767 68.8855 173.892 59.0879C172.449 51.535 180.389 41.7324 191.144 36.7152C191.443 36.5746 191.741 36.4414 192.044 36.3082C196.171 34.515 200.678 33.4321 205.194 33.4444C209.442 33.4444 213.68 34.4311 217.599 36.0616C217.9 36.1849 218.198 36.3132 218.494 36.4464C229.375 41.286 237.54 51.0712 236.166 58.7549Z" fill="#20C5BA"/>
<path d="M227.121 58.2216C225.833 65.3428 213.147 68.7937 204.674 68.737C196.633 68.6827 184.267 65.4144 182.938 58.4584C181.497 50.9252 193.221 40.2297 205.138 40.2642C216.864 40.2963 228.48 50.6908 227.121 58.2216Z" fill="white"/>
<path d="M196.287 58.2469C195.868 58.2469 195.466 58.0803 195.169 57.7838C194.873 57.4873 194.706 57.0851 194.706 56.6658V52.502C194.706 52.0827 194.873 51.6805 195.169 51.384C195.466 51.0875 195.868 50.9209 196.287 50.9209C196.707 50.9209 197.109 51.0875 197.405 51.384C197.702 51.6805 197.868 52.0827 197.868 52.502V56.6658C197.868 57.0851 197.702 57.4873 197.405 57.7838C197.109 58.0803 196.707 58.2469 196.287 58.2469ZM212.604 58.2469C212.185 58.2469 211.783 58.0803 211.486 57.7838C211.19 57.4873 211.023 57.0851 211.023 56.6658V52.502C211.023 52.0827 211.19 51.6805 211.486 51.384C211.783 51.0875 212.185 50.9209 212.604 50.9209C213.024 50.9209 213.426 51.0874 213.723 51.3839C214.02 51.6803 214.187 52.0825 214.188 52.502V56.6658C214.187 57.0853 214.02 57.4875 213.723 57.7839C213.426 58.0804 213.024 58.2469 212.604 58.2469Z" fill="#311716"/>
<path d="M206.05 68.7373C195.256 68.6609 178.67 64.0507 176.88 54.2506C176.465 51.9714 176.865 49.4899 177.906 46.9937C174.783 51.002 173.175 55.3187 173.892 59.0803C175.767 68.8804 193.194 73.4881 204.528 73.5646C216.474 73.646 234.353 68.7842 236.166 58.7473C236.402 57.3477 236.36 55.9152 236.043 54.5318C233.744 64.1518 217.19 68.8163 206.05 68.7373Z" fill="#16B4AA"/>
<path d="M240.872 65.7352L246.052 65.6415C248.196 65.602 250.038 63.7989 250.369 61.4136L251.151 55.7723C251.476 53.4191 250.228 51.2041 248.213 50.5529L243.22 48.9421C240.695 48.1281 238.04 50.0645 237.653 53.0121L236.667 60.3628C236.306 63.2537 238.28 65.7821 240.872 65.7352Z" fill="#20C5BA"/>
<path d="M237.242 68.2231L239.575 68.5887C242.61 69.0645 245.456 66.9899 245.931 63.955L247.707 52.6307C248.182 49.5958 246.108 46.7498 243.073 46.274L240.741 45.9084C237.706 45.4326 234.86 47.5071 234.384 50.5421L232.609 61.8663C232.133 64.9013 234.208 67.7473 237.242 68.2231Z" fill="#311716"/>
<path d="M169.672 64.8621L164.492 64.7684C162.346 64.7289 160.506 62.9258 160.175 60.543L159.393 54.8993C159.068 52.5461 160.316 50.331 162.331 49.6823L167.324 48.0715C169.849 47.2551 172.504 49.1914 172.891 52.1415L173.878 59.4897C174.243 62.3807 172.274 64.9213 169.672 64.8621Z" fill="#20C5BA"/>
<path d="M169.8 45.0361L167.467 45.4017C164.432 45.8775 162.358 48.7235 162.834 51.7584L164.609 63.0827C165.085 66.1176 167.931 68.1922 170.966 67.7164L173.298 67.3508C176.333 66.875 178.407 64.029 177.932 60.994L176.156 49.6698C175.68 46.6348 172.834 44.5603 169.8 45.0361Z" fill="#311716"/>
<path d="M190.609 78.155C183.051 78.155 177.706 75.6513 174.275 73.1895C169.277 69.603 167.205 65.422 167.122 65.2469L168.355 64.645C168.375 64.6845 170.392 68.7323 175.133 72.1141C181.389 76.5788 189.573 77.8688 198.794 75.8462L199.09 77.188C196.306 77.8156 193.463 78.1398 190.609 78.155Z" fill="#311716"/>
<path d="M201.253 73.94L196.314 74.4713C195.768 74.53 195.373 75.0201 195.432 75.566L195.623 77.3465C195.682 77.8924 196.172 78.2873 196.718 78.2286L201.657 77.6972C202.203 77.6385 202.598 77.1484 202.539 76.6025L202.348 74.822C202.289 74.2761 201.799 73.8812 201.253 73.94Z" fill="#311716"/>
<path d="M204.521 61.7961C201.808 61.7961 200.066 60.0053 199.741 59.6402L200.392 59.0581C200.681 59.3812 202.235 60.9895 204.679 60.9204C205.43 60.8882 206.167 60.7069 206.848 60.3872C207.528 60.0675 208.139 59.6157 208.643 59.0581L209.294 59.6402C208.71 60.2855 208.003 60.8082 207.215 61.1779C206.427 61.5476 205.573 61.7569 204.704 61.7936L204.521 61.7961Z" fill="#311716"/>
<mask id="mask1_82_13653" style="mask-type:luminance" maskUnits="userSpaceOnUse" x="44" y="52" width="218" height="199">
<path d="M44.627 52.5146H261.689V250.146H44.627V52.5146Z" fill="white"/>
</mask>
<g mask="url(#mask1_82_13653)">
<path d="M158.656 140.974C157.295 142.74 155.752 144.359 154.053 145.803C150.948 148.42 147.383 150.436 143.54 151.748C142.911 151.965 142.29 152.16 141.688 152.335C139.048 153.087 136.338 153.56 133.6 153.749C129.495 148.761 121.708 137.74 121.074 122.558C120.925 118.96 121.181 115.358 121.839 111.818C125.873 111.366 129.956 111.714 133.856 112.841C135.884 113.438 137.84 114.254 139.69 115.276C140.302 115.606 140.891 115.959 141.466 116.329C144.74 118.471 147.638 121.138 150.045 124.223C150.43 124.716 150.797 125.194 151.15 125.68C153.035 128.301 154.666 131.096 156.019 134.028C156.288 134.612 156.537 135.175 156.759 135.707C157.496 137.423 158.13 139.182 158.656 140.974Z" fill="#20C5BA"/>
<path d="M147.889 128.048C143.412 130.624 138.338 133.544 133.165 130.098C131.236 128.811 130.346 127.266 130.519 125.508C130.854 122.114 135.343 118.695 139.645 116.174C140.255 116.499 140.842 116.842 141.411 117.202C137.053 119.669 132.576 122.908 132.302 125.675C132.193 126.768 132.795 127.74 134.177 128.653C138.419 131.482 142.588 129.079 147.003 126.541C147.99 125.979 148.959 125.411 149.944 124.913C150.323 125.384 150.684 125.86 151.041 126.336C150.06 126.813 149.019 127.397 147.889 128.048ZM156.611 136.122C156.118 136.489 155.592 136.862 155.062 137.239C150.129 140.776 144.233 145.014 143.469 151.773C142.845 151.985 142.235 152.175 141.626 152.345C142.105 144.38 148.858 139.533 154.019 135.831C154.66 135.369 155.286 134.92 155.876 134.484C156.14 135.051 156.387 135.601 156.611 136.122Z" fill="#19817A"/>
<path d="M96.6931 126.46L142.99 158.554L173.295 132.654C176.167 133.512 183.503 136.127 189.284 143.391C192.457 147.399 194.625 152.107 195.606 157.123C168.177 187.638 149.823 191.797 137.859 189.338C128.545 187.421 116.015 174.871 91.3281 149.844L96.6931 126.46Z" fill="#FFCBC0"/>
<path d="M195.607 157.123C195.607 157.123 213.981 148.174 222.691 145.907C222.691 145.907 204.792 121.208 200.491 123.954C196.189 126.699 173.9 140.419 173.9 140.419C173.9 140.419 184.869 159.148 195.607 157.123Z" fill="#FFCBC0"/>
<path d="M153.799 177.024L205.443 140.463C205.357 141.316 205.273 142.167 205.197 143.021L192.153 156.06C182.868 169.849 169.435 180.326 153.799 185.973V177.024Z" fill="#F4BFB5"/>
<path d="M155.681 213.726C156.446 230.899 157.012 248.322 157.378 265.997C158.636 327.681 157.218 386.74 153.799 442.918C142.881 445.382 131.581 445.642 120.561 443.686C120.15 429.543 119.805 415.401 119.527 401.259C118.592 353.544 118.427 305.815 119.034 258.074C118.462 280.519 117.77 302.956 116.959 325.384C115.542 364.658 113.762 403.923 111.619 443.177C98.9719 445.26 86.0435 444.913 73.5264 442.154C73.7188 390.265 74.7104 338.407 76.5012 286.579C77.3053 263.321 78.2689 240.068 79.3921 216.819L155.681 213.726Z" fill="#311716"/>
<path d="M157.667 223.462C152.418 225.199 147.063 226.595 141.634 227.64C140.509 227.86 139.359 228.067 138.18 228.257C118.174 231.555 97.669 230.033 78.3687 223.817C78.4772 221.232 78.5931 218.683 78.7165 216.17C78.7485 215.485 78.7855 214.804 78.8225 214.128C79.1925 207.027 79.6258 200.262 80.1225 193.832C80.1882 192.941 80.2565 192.058 80.3272 191.183C81.0228 182.414 81.8072 174.314 82.6039 166.936C82.673 166.314 82.7396 165.702 82.8087 165.086C83.1606 161.912 83.5158 158.88 83.8743 155.989C83.9557 155.333 84.0346 154.684 84.1209 154.045C84.1653 153.69 84.2097 153.337 84.2541 152.987C85.1224 146.117 85.9537 140.264 87.1574 135.254C87.298 134.662 87.4485 134.082 87.6014 133.527C89.4366 126.714 92.1154 121.542 96.8045 117.511C97.1277 117.232 97.4631 116.961 97.8035 116.695C98.0502 116.51 98.2821 116.325 98.5312 116.147C102.39 113.399 106.76 111.45 111.383 110.415C111.629 110.355 111.876 110.299 112.137 110.252C117.453 109.154 123.225 109.211 128.74 111.068C128.972 111.15 129.392 111.295 129.959 111.522C130.169 111.606 130.401 111.7 130.647 111.808C133.76 113.169 136.651 114.988 139.224 117.205C142.301 119.866 144.866 123.067 146.792 126.65C147.129 127.269 147.453 127.883 147.756 128.535C149.675 132.508 150.977 136.808 152.006 141.238C152.618 143.875 153.163 146.702 153.651 149.667C153.748 150.254 153.841 150.843 153.935 151.44C154.885 157.59 155.602 164.267 156.143 170.998C156.251 172.335 156.35 173.677 156.444 175.014C156.495 175.729 156.545 176.45 156.592 177.163C156.838 181.072 157.043 184.945 157.198 188.694C157.253 189.997 157.301 191.281 157.344 192.547C157.369 193.154 157.389 193.755 157.406 194.35C157.566 199.395 157.652 204.094 157.694 208.188C157.694 208.798 157.7 209.394 157.711 209.977C157.771 217.362 157.687 222.443 157.667 223.462Z" fill="#20C5BA"/>
<path d="M157.714 188.667C157.452 182.433 157.097 176.471 156.653 170.949C155.684 158.835 154.288 148.798 152.507 141.102C150.726 133.406 147.657 123.766 139.557 116.795C136.424 114.074 132.812 111.961 128.906 110.562C117.29 106.65 104.759 110.609 97.4927 116.27C88.0675 123.613 86.0153 135.017 83.7509 152.915C80.8279 176.01 78.8471 199.848 77.8654 223.789L77.8506 224.179L78.2206 224.298L78.9335 224.515L78.9507 223.452L78.9039 223.437C79.8905 199.658 81.8639 175.978 84.7622 153.048C86.9945 135.406 89.0098 124.188 98.1217 117.081C105.174 111.588 117.322 107.745 128.58 111.536C132.364 112.891 135.862 114.941 138.893 117.58C146.764 124.351 149.771 133.835 151.51 141.339C153.279 148.98 154.66 158.968 155.647 171.03C156.086 176.54 156.441 182.488 156.7 188.709C157.277 202.522 157.262 214.493 157.211 220.139C157.196 221.523 157.181 222.527 157.174 223.099C157.174 223.461 157.156 223.822 157.149 224.182C157.381 224.11 157.608 224.036 157.837 223.96L158.18 223.844V223.484C158.21 221.821 158.469 206.846 157.714 188.667Z" fill="#311716"/>
<path d="M201.49 106.816C201.49 106.816 204.203 96.2682 208.537 90.1731C212.871 84.0779 214.336 91.4064 212.212 94.9436C210.089 98.4808 210.833 105.494 209.906 107.144C208.979 108.794 201.49 106.816 201.49 106.816Z" fill="#FFCBC0"/>
<path d="M251.815 114.502C251.815 114.502 234.486 109.709 220.458 107.149C206.43 104.588 203.216 104.033 203.216 104.033C203.216 104.033 190.471 122.985 195.237 132.849C200.002 142.713 220.962 147.442 232.757 147.555C244.553 147.669 235.471 122.967 251.815 114.502Z" fill="#FFCBC0"/>
<path d="M216.019 151.454L193.185 137.7C192.536 137.311 191.97 136.797 191.519 136.189C191.069 135.58 190.743 134.889 190.56 134.155C190.376 133.421 190.34 132.657 190.451 131.909C190.563 131.16 190.821 130.441 191.211 129.792L221.507 79.4943C221.897 78.8462 222.411 78.2813 223.02 77.8319C223.629 77.3825 224.32 77.0575 225.055 76.8754C225.789 76.6933 226.552 76.6576 227.3 76.7705C228.048 76.8834 228.767 77.1426 229.415 77.5333L252.251 91.2875C252.901 91.6768 253.467 92.1903 253.917 92.7986C254.368 93.4069 254.694 94.098 254.877 94.8325C255.061 95.5669 255.097 96.3303 254.985 97.079C254.873 97.8277 254.615 98.5469 254.225 99.1956L223.927 149.493C223.536 150.142 223.022 150.706 222.413 151.156C221.805 151.605 221.113 151.93 220.379 152.112C219.644 152.294 218.881 152.33 218.133 152.217C217.385 152.104 216.666 151.845 216.019 151.454Z" fill="white"/>
<path d="M218.981 153.394C217.735 153.394 216.514 153.052 215.448 152.407L192.612 138.65C191.053 137.709 189.931 136.187 189.492 134.419C189.053 132.651 189.334 130.782 190.271 129.22L220.567 78.9225C221.032 78.1497 221.646 77.4762 222.372 76.9405C223.097 76.4047 223.922 76.0172 224.797 75.8001C225.673 75.5829 226.583 75.5404 227.475 75.6749C228.367 75.8094 229.224 76.1184 229.997 76.5841L252.833 90.3283C254.394 91.2683 255.517 92.7895 255.956 94.5574C256.395 96.3254 256.114 98.1953 255.174 99.7559L224.876 150.064C224.413 150.838 223.801 151.513 223.075 152.049C222.35 152.585 221.525 152.972 220.648 153.186C220.103 153.323 219.543 153.393 218.981 153.394ZM226.46 77.8125C226.079 77.813 225.699 77.8602 225.33 77.9531C224.736 78.0982 224.177 78.3598 223.686 78.7227C223.194 79.0856 222.78 79.5425 222.466 80.067L192.17 130.365C191.535 131.422 191.345 132.689 191.643 133.886C191.94 135.083 192.7 136.114 193.757 136.751L216.59 150.515C217.648 151.151 218.915 151.342 220.113 151.045C221.31 150.748 222.341 149.988 222.979 148.931L253.272 98.6336C253.908 97.576 254.098 96.3095 253.801 95.1118C253.505 93.9141 252.745 92.8831 251.689 92.2449L228.852 78.4883C228.131 78.0489 227.304 77.8151 226.46 77.8125Z" fill="#311716"/>
<path d="M222.942 85.9853L212.982 102.074C211.27 104.839 212.124 108.468 214.889 110.179L229.155 119.011C231.92 120.722 235.549 119.869 237.26 117.104L247.22 101.015C248.932 98.2503 248.078 94.6213 245.313 92.9097L231.047 84.0783C228.282 82.3666 224.653 83.2205 222.942 85.9853Z" fill="#FDDFCE"/>
<path d="M229.565 131.665L205.72 116.909C205.049 116.492 205.086 115.217 205.801 114.058C206.519 112.898 207.644 112.296 208.317 112.713L232.158 127.471C232.829 127.886 232.792 129.163 232.076 130.32C231.373 131.48 230.236 132.082 229.565 131.665Z" fill="#20C5BA"/>
<path d="M223.973 140.685L200.133 125.927C199.462 125.512 199.499 124.235 200.217 123.078C200.932 121.918 202.059 121.317 202.73 121.731L226.571 136.489C227.244 136.906 227.207 138.181 226.489 139.341C225.779 140.5 224.654 141.102 223.973 140.685ZM218.527 149.496L194.686 134.728C194.015 134.311 194.052 133.036 194.77 131.876C195.486 130.72 196.613 130.118 197.284 130.532L221.124 145.29C221.798 145.707 221.761 146.982 221.043 148.142C220.325 149.308 219.2 149.913 218.527 149.496Z" fill="#311716"/>
<path d="M240.105 103.946V103.932L238.033 103.498V103.473C238.192 102.787 238.263 102.083 238.243 101.379C238.228 100.852 238.164 100.329 238.051 99.8148V99.8L240.083 99.0921V99.0773C239.851 98.1827 239.493 97.3256 239.02 96.5317C239.02 96.5317 239.02 96.5317 239.005 96.5317L237.111 97.3358C237.109 97.3369 237.106 97.3375 237.104 97.3375C237.101 97.3375 237.098 97.3369 237.096 97.3358L236.923 97.141C236.456 96.4209 235.88 95.7784 235.214 95.2367L234.676 94.6398C234.675 94.637 234.675 94.6341 234.675 94.6311C234.675 94.6282 234.675 94.6252 234.676 94.6225L235.688 93.182V93.1647C234.593 92.4827 233.381 92.0094 232.113 91.7686C232.113 91.7686 232.113 91.7686 232.099 91.7686L231.578 93.2338C231.576 93.2348 231.574 93.2354 231.572 93.2354C231.57 93.2354 231.568 93.2348 231.566 93.2338L228.14 93.256C228.1 92.7939 228.062 92.3342 228.024 91.8771C228.023 91.8736 228.021 91.8704 228.019 91.8682C228.016 91.8659 228.012 91.8647 228.009 91.8648C227.592 91.9164 227.18 91.9988 226.776 92.1114C226.033 92.3212 225.323 92.6342 224.667 93.0414V93.0586L225.5 94.4202C225.502 94.4227 225.503 94.4258 225.503 94.4289C225.503 94.432 225.502 94.435 225.5 94.4375L223.016 96.5786L221.692 95.8386H221.675C221.056 96.6892 220.578 97.6336 220.259 98.6358C220.257 98.6383 220.256 98.6413 220.256 98.6444C220.256 98.6475 220.257 98.6505 220.259 98.653L221.985 99.0699C221.987 99.0739 221.987 99.0782 221.985 99.0822L222.027 99.8518C221.886 100.5 221.825 101.162 221.845 101.825C221.853 102.13 221.878 102.434 221.919 102.735C221.919 102.735 221.919 102.748 221.919 102.75L219.985 103.357V103.372C220.193 104.462 220.588 105.509 221.152 106.465C221.154 106.467 221.157 106.468 221.16 106.468C221.163 106.468 221.166 106.467 221.169 106.465L222.792 105.436H222.809L222.92 105.634C223.472 106.61 224.217 107.463 225.111 108.14V108.155L224.343 109.775V109.79C224.72 110.035 225.112 110.255 225.518 110.449C226.065 110.713 226.634 110.929 227.22 111.092C227.224 111.094 227.23 111.094 227.234 111.092C227.481 110.582 227.728 110.071 227.992 109.558H228.006C228.75 109.746 229.517 109.829 230.283 109.805C230.629 109.796 230.974 109.765 231.317 109.714C231.317 109.714 231.317 109.714 231.329 109.714C231.526 110.249 231.721 110.784 231.919 111.317C233.086 111.115 234.211 110.718 235.246 110.143C235.248 110.142 235.249 110.14 235.25 110.138C235.251 110.137 235.251 110.135 235.251 110.133C235.251 110.131 235.251 110.129 235.25 110.127C235.249 110.126 235.248 110.124 235.246 110.123C234.962 109.603 234.674 109.082 234.39 108.562V108.544C235.425 107.897 236.303 107.027 236.96 105.999C236.96 105.999 236.96 105.999 236.975 105.999L238.862 106.739H238.877C239.43 105.878 239.844 104.936 240.105 103.946ZM230.197 106.519C229.206 106.565 228.224 106.313 227.377 105.797C226.53 105.28 225.857 104.522 225.444 103.621C225.031 102.719 224.897 101.714 225.059 100.735C225.222 99.7566 225.673 98.8488 226.355 98.1285C227.037 97.4082 227.919 96.9082 228.887 96.6927C229.855 96.4773 230.866 96.5562 231.789 96.9194C232.712 97.2825 233.506 97.9133 234.068 98.7308C234.63 99.5482 234.934 100.515 234.943 101.507C234.952 102.794 234.464 104.034 233.579 104.969C232.694 105.903 231.482 106.459 230.197 106.519Z" fill="white"/>
<path d="M216.129 135.288C216.129 135.288 191.551 153.662 183.915 153.662C176.278 153.662 169.707 137.912 169.707 137.912C175.543 128.179 184.78 115.814 197.506 108.68C200.713 106.889 210.259 101.527 215.404 104.625C215.841 104.886 216.704 105.422 216.835 106.295C217.269 109.154 209.398 112.602 204.427 114.528C205.465 114.898 206.437 115.432 207.306 116.11C208.672 117.116 209.997 118.596 209.928 120.518C209.928 120.589 209.928 120.661 209.916 120.732L209.97 120.762C210.535 121.087 215.374 124.035 213.872 128.031C213.833 128.14 213.788 128.248 213.739 128.357C213.739 128.357 213.739 128.357 213.739 128.369C213.739 128.381 220.902 130.157 216.129 135.288Z" fill="#FFCBC0"/>
<path d="M213.882 128.031C213.843 128.14 213.798 128.248 213.749 128.357C210.636 129.812 206.263 132.057 202.479 134.787L202.341 134.595C206.233 131.793 210.75 129.486 213.882 128.031ZM209.98 120.762C206.86 122.215 202.393 124.501 198.542 127.271L198.402 127.079C202.294 124.279 206.805 121.973 209.938 120.518C209.938 120.589 209.938 120.661 209.926 120.732L209.98 120.762ZM208.135 113.268C204.033 114.995 198.162 117.745 193.088 121.065L192.906 120.833C198.022 117.479 203.956 114.716 208.076 112.975C208.076 113.058 208.076 113.145 208.058 113.221L208.135 113.268Z" fill="#311716"/>
<path d="M248.886 112.883C248.886 112.883 236.038 111.99 235.936 116.953C235.835 121.916 243.709 121.351 243.709 121.351C241.26 121.397 238.82 121.678 236.425 122.19C234.104 122.683 232.725 123.221 231.669 124.452C231.118 125.037 230.755 125.775 230.628 126.568C230.399 128.389 231.694 130.227 233.169 130.851C233.975 131.193 234.896 131.196 235.5 131.196C236.154 131.196 238.119 131.036 237.473 131.08C233.566 130.811 230.357 132.269 229.503 134.6C229.214 135.453 229.191 136.373 229.437 137.239C230.016 139.173 232.002 140.574 234.516 140.831C234.516 140.831 227.885 139.501 226.669 143.246C225.453 146.99 235.727 148.048 235.727 148.048C235.727 148.048 241.292 146.928 241.445 143.45C241.597 139.972 240.66 140.091 240.66 140.091C240.66 140.091 245.371 138.246 242.663 131.618C242.663 131.618 249.141 130.592 247.828 123.364C247.828 123.362 258.556 112.817 248.886 112.883ZM113.787 86.0806V111.031C113.787 113.31 116.037 115.251 119.088 115.597C120.342 115.741 121.607 115.76 122.864 115.653C123.045 115.639 123.22 115.621 123.392 115.602C126.416 115.261 128.624 113.303 128.624 111.043V86.0806H113.787Z" fill="#FFCBC0"/>
<path d="M117.167 95.9175C117.167 95.9175 119.288 106.09 128.627 108.063V100.219C125.038 97.8637 120.553 95.9175 117.167 95.9175Z" fill="#F4BFB5"/>
<path d="M132.954 77.8593C135.286 77.8895 137.58 77.2565 139.567 76.034C140.371 75.5407 141.375 74.8993 142.152 73.7227C143.819 71.1944 143.607 67.3982 141.794 64.7737C139.981 62.1491 136.308 59.9489 132.845 61.1945C130.196 62.1491 129.022 64.6479 128.738 65.2966C127.929 64.9167 121.743 62.1467 115.699 65.2966C111.822 67.3168 110.08 70.6912 109.579 71.6951C107.877 75.1041 108.008 78.1627 108.099 80.3679C108.346 87.1932 111.831 91.9613 112.89 93.3697C113.257 93.8631 113.58 94.2503 113.802 94.5093L115.625 94.9657C116.169 93.3347 116.552 91.6542 116.767 89.9485C117.206 86.4655 116.676 85.0003 116.984 83.7251C117.517 81.5149 120.771 79.0088 132.954 77.8593Z" fill="#311716"/>
<path d="M139.571 74.6646C139.991 79.8356 139.839 85.0371 139.12 90.175C138.474 94.7506 137.531 98.0436 135.016 100.668C134.261 101.453 133.237 102.496 131.594 102.947C128.669 103.754 126.015 102.082 123.042 100.207C120.59 98.6603 118.23 97.1729 117.226 94.2869C116.945 93.4753 116.898 92.4591 116.819 90.4561C116.612 85.2021 115.961 81.3492 118.481 80.1134C118.876 79.921 119.387 79.4474 120.583 78.7444C125.023 76.1347 127.828 74.4845 130.682 75.1258C131.316 75.2689 131.74 75.4761 133.888 76.0385C135.773 76.5318 136.281 76.5935 136.848 76.4948C137.369 76.3986 138.471 76.078 139.571 74.6646Z" fill="#FFCBC0"/>
<path d="M119.337 85.2394C118.997 82.0673 116.997 80.1877 115.47 80.3628C114.345 80.4886 113.393 81.7392 113.114 82.8838C112.739 84.4378 113.607 85.7475 114.37 86.8723C115.157 88.0323 116.198 88.9981 117.413 89.6967C118.051 88.2101 118.693 86.7243 119.337 85.2394Z" fill="#FFCBC0"/>
<path d="M135.817 84.0605C135.817 84.2606 135.876 84.4563 135.986 84.623C136.097 84.7896 136.255 84.9196 136.44 84.9966C136.625 85.0735 136.828 85.0939 137.024 85.0551C137.221 85.0164 137.401 84.9203 137.543 84.7789C137.684 84.6376 137.781 84.4574 137.82 84.2611C137.859 84.0649 137.84 83.8614 137.763 83.6765C137.687 83.4915 137.557 83.3334 137.391 83.2222C137.224 83.111 137.029 83.0516 136.829 83.0516C136.561 83.0522 136.304 83.1587 136.115 83.3476C135.926 83.5366 135.818 83.7929 135.817 84.0605ZM127.073 84.4083C127.073 84.6078 127.132 84.8028 127.243 84.9687C127.354 85.1347 127.511 85.264 127.696 85.3403C127.88 85.4167 128.083 85.4367 128.279 85.3977C128.474 85.3588 128.654 85.2627 128.795 85.1216C128.936 84.9805 129.032 84.8008 129.071 84.6051C129.11 84.4094 129.09 84.2065 129.014 84.0222C128.937 83.8378 128.808 83.6803 128.642 83.5694C128.476 83.4586 128.281 83.3994 128.082 83.3994C127.814 83.3994 127.558 83.5057 127.368 83.6949C127.179 83.8841 127.073 84.1407 127.073 84.4083ZM116.141 87.462C116.056 87.4617 115.975 87.433 115.909 87.3806C114.483 86.2434 113.935 84.4206 114.631 83.0541C114.832 82.6859 115.103 82.3608 115.429 82.0976C115.755 81.8343 116.131 81.638 116.533 81.5198C116.579 81.5049 116.629 81.4993 116.677 81.5034C116.726 81.5075 116.774 81.5211 116.817 81.5436C116.861 81.566 116.899 81.5968 116.931 81.6342C116.963 81.6716 116.987 81.7149 117.001 81.7615C117.016 81.8082 117.022 81.8573 117.018 81.9061C117.014 81.9549 117 82.0024 116.978 82.0459C116.955 82.0894 116.924 82.1281 116.887 82.1597C116.85 82.1913 116.806 82.2153 116.76 82.2302C116.141 82.4131 115.617 82.8274 115.297 83.387C114.769 84.4428 115.223 85.8784 116.375 86.796C116.452 86.858 116.502 86.948 116.513 87.0465C116.524 87.1449 116.496 87.2438 116.434 87.3214C116.399 87.3656 116.355 87.4013 116.304 87.4257C116.253 87.4501 116.197 87.4625 116.141 87.462ZM119.584 76.9935C119.744 76.989 119.904 77.0227 120.048 77.0917C120.193 77.1608 120.32 77.2632 120.417 77.3906C120.515 77.518 120.58 77.6667 120.609 77.8245C120.638 77.9823 120.629 78.1447 120.583 78.2983C120.285 79.2998 120.035 80.7033 120.413 81.9638C120.822 83.3303 121.153 84.6451 121.34 85.4813C121.397 85.7281 121.36 85.9872 121.235 86.2077C121.11 86.4282 120.908 86.5941 120.667 86.6726C120.417 86.7554 120.144 86.7376 119.906 86.623C119.669 86.5084 119.485 86.306 119.394 86.0585C118.479 83.54 115.953 76.7616 115.396 76.9466C114.929 77.102 117.741 77.0453 119.584 76.9935ZM125.553 81.3126C125.468 81.3136 125.384 81.2849 125.317 81.2315C125.25 81.1781 125.203 81.1032 125.185 81.0195C125.167 80.9357 125.178 80.8482 125.217 80.7717C125.256 80.6953 125.32 80.6345 125.398 80.5997C127.044 79.8789 128.858 79.632 130.637 79.8869C130.735 79.9045 130.822 79.9604 130.879 80.0423C130.936 80.1242 130.958 80.2253 130.941 80.3235C130.923 80.4216 130.867 80.5087 130.785 80.5656C130.703 80.6225 130.602 80.6445 130.504 80.6269C128.875 80.4059 127.216 80.6327 125.706 81.283C125.658 81.3035 125.606 81.3136 125.553 81.3126ZM139.685 81.3126C139.622 81.3126 139.56 81.2964 139.505 81.2657C137.593 80.2026 134.983 80.617 134.959 80.6219C134.861 80.6383 134.76 80.615 134.679 80.5572C134.598 80.4993 134.543 80.4117 134.527 80.3136C134.511 80.2155 134.534 80.1148 134.592 80.0339C134.65 79.9529 134.737 79.8983 134.835 79.8819C134.951 79.8622 137.726 79.4157 139.867 80.6071C139.939 80.648 139.995 80.7113 140.027 80.7872C140.059 80.8632 140.065 80.9475 140.044 81.0273C140.024 81.107 139.977 81.1777 139.912 81.2284C139.847 81.2791 139.767 81.3069 139.685 81.3076V81.3126Z" fill="#311716"/>
<path d="M132.953 92.3731C132.861 92.3682 132.775 92.3293 132.71 92.2641C132.645 92.1988 132.606 92.1118 132.601 92.0198C132.597 91.9278 132.627 91.8374 132.685 91.766C132.743 91.6946 132.825 91.6472 132.916 91.6331C134.066 91.5172 135.038 91.1842 135.107 90.9745C135.156 90.5059 133.873 87.3757 132.613 84.6352C132.592 84.5907 132.581 84.5425 132.579 84.4935C132.577 84.4445 132.585 84.3955 132.602 84.3495C132.619 84.3035 132.644 84.2612 132.678 84.2252C132.711 84.1891 132.751 84.16 132.796 84.1394C132.84 84.1188 132.888 84.1072 132.937 84.1053C132.986 84.1033 133.035 84.111 133.081 84.128C133.127 84.1449 133.17 84.1708 133.206 84.2041C133.242 84.2373 133.271 84.2774 133.291 84.3219C134.337 86.5863 136.054 90.4886 135.817 91.2113C135.541 92.0352 133.748 92.3016 132.99 92.3756L132.953 92.3731Z" fill="#252122"/>
<path d="M133.693 94.0062C132.31 94.3601 130.852 94.2739 129.52 93.7595C128.869 93.501 128.264 93.1386 127.729 92.6865C127.014 94.1443 127.307 95.7822 128.326 96.6332C129.5 97.6026 131.099 97.0673 131.308 96.9909C133.249 96.2977 133.666 94.1073 133.693 94.0062Z" fill="#BC4D68"/>
<path d="M127.201 89.0751C126.094 89.0579 125.013 88.7389 124.073 88.1526L123.992 88.0934C123.304 87.5312 122.764 86.8087 122.421 85.9893C121.925 84.785 121.82 83.4555 122.12 82.1882L122.258 81.5962H132.238L132.354 82.2227C132.48 82.9109 132.781 85.3011 131.303 87.1783C130.614 88.034 129.659 88.6362 128.59 88.8901C128.137 89.0129 127.67 89.0751 127.201 89.0751ZM124.917 86.8749C125.399 87.1786 125.936 87.3827 126.498 87.4751C127.06 87.5675 127.634 87.5462 128.188 87.4126C128.94 87.246 129.613 86.8295 130.097 86.2311C130.899 85.2148 130.968 83.9149 130.918 83.1329H123.518C123.431 83.9008 123.537 84.6783 123.827 85.3949C124.068 85.9674 124.442 86.4746 124.917 86.8749Z" fill="#2B2B2B"/>
<path d="M137.813 89.0751C136.704 89.0578 135.621 88.7389 134.68 88.1526L134.599 88.0934C133.911 87.5306 133.372 86.8083 133.027 85.9893C132.533 84.7845 132.43 83.455 132.731 82.1882L132.869 81.5962H142.847L142.963 82.2227C143.091 82.9109 143.392 85.3011 141.912 87.1783C141.223 88.0345 140.268 88.6369 139.199 88.8901C138.747 89.0129 138.281 89.0751 137.813 89.0751ZM135.528 86.8749C136.01 87.1788 136.548 87.3829 137.109 87.4753C137.671 87.5677 138.246 87.5464 138.799 87.4126C139.551 87.2455 140.224 86.829 140.708 86.2311C141.51 85.2148 141.579 83.9149 141.53 83.1329H134.13C134.04 83.9004 134.144 84.6781 134.433 85.3949C134.674 85.9689 135.05 86.4765 135.528 86.8749Z" fill="#2B2B2B"/>
<path d="M131.683 81.5317H133.217V83.066H131.683V81.5317Z" fill="#2E2D2C"/>
<path d="M115.479 80.5254L115.909 79.0528L122.82 81.0736L122.389 82.5462L115.479 80.5254Z" fill="#2B2B2B"/>
<path d="M157.225 220.139C157.202 221.126 157.182 222.112 157.164 223.099C157.164 222.539 157.186 221.535 157.201 220.139H157.225Z" fill="#22201D"/>
<path d="M129.961 111.515C129.391 114.438 125.62 116.694 121.081 116.694C116.148 116.694 112.117 114.021 112.117 110.735C112.117 110.57 112.127 110.405 112.147 110.242C111.9 110.289 111.654 110.345 111.392 110.405C111.392 110.518 111.38 110.626 111.38 110.74C111.38 114.44 115.731 117.435 121.081 117.435C125.906 117.435 129.922 114.988 130.657 111.798C130.403 111.692 130.171 111.598 129.961 111.515Z" fill="#311716"/>
<path d="M97.9488 139.854C94.2858 137.388 90.7017 135.811 87.6727 135.259C87.8108 134.667 87.9555 134.091 88.1068 133.532C91.3554 134.146 95.0875 135.787 98.9182 138.374C100.465 139.418 101.878 140.407 103.242 141.364C111.994 147.484 116.387 150.557 122.389 145.658C126.715 142.131 131.791 144.302 137.166 146.601C141.883 148.618 147.225 150.905 152.844 149.681H152.884C152.98 150.268 153.071 150.858 153.163 151.455C147.021 152.77 141.429 150.375 136.488 148.248C131.394 146.07 126.994 144.191 123.486 147.052C116.466 152.78 110.81 148.823 102.248 142.836C100.887 141.882 99.4806 140.895 97.9488 139.854ZM155.767 177.155C148.807 173.147 144.951 168.364 142.021 164.728C138.814 160.742 136.86 158.334 133.116 158.986C129.527 159.612 116.407 161.206 103.634 160.372C95.2297 159.818 88.8369 158.358 84.4561 155.994C84.5375 155.337 84.614 154.689 84.7028 154.05C89.6583 156.97 97.1841 158.154 103.758 158.586C116.358 159.42 129.29 157.846 132.827 157.222C137.576 156.391 140.139 159.57 143.382 163.591C146.221 167.111 149.623 171.329 155.632 175.007C155.676 175.722 155.723 176.442 155.767 177.155ZM147.105 128.527C139.253 127.772 136.128 128.313 131.071 129.191C128.905 129.568 126.451 129.992 123.141 130.424C114.947 131.453 111.446 127.822 108.052 124.304C105.517 121.68 102.894 118.966 98.1609 117.812C97.8137 117.727 97.4712 117.624 97.1348 117.504C97.4505 117.225 97.7786 116.954 98.1215 116.687C98.3558 116.502 98.5901 116.317 98.8343 116.14C103.896 117.445 106.767 120.419 109.31 123.046C112.687 126.542 115.608 129.563 122.924 128.633C126.192 128.216 128.627 127.795 130.773 127.422C135.748 126.561 138.913 126.014 146.165 126.638C146.49 127.262 146.806 127.888 147.105 128.527ZM134.751 214.574C133.809 217.833 130.903 219.261 128.091 220.66C127.845 220.783 127.583 220.906 127.334 221.035C123.676 222.872 120.849 223.632 118.602 223.632C113.506 223.632 111.36 219.737 109.133 215.687C107.431 212.599 105.679 209.402 102.426 207.451C97.2779 204.355 95.011 206.957 91.8759 210.544C89.7126 213.011 87.2632 215.83 83.4695 216.513C82.9209 216.614 82.3646 216.667 81.8069 216.671C80.9761 216.688 80.1519 216.52 79.3945 216.178C79.4258 215.492 79.4595 214.811 79.4957 214.135C80.3368 214.831 81.469 215.058 83.1636 214.75C86.3579 214.177 88.4965 211.725 90.5636 209.355C93.6963 205.768 96.9399 202.068 103.324 205.912C106.972 208.107 108.935 211.666 110.667 214.809C113.824 220.541 116.106 224.675 126.562 219.429C126.809 219.301 127.075 219.182 127.332 219.049C129.909 217.774 132.344 216.568 133.064 214.071C133.785 211.575 132.689 208.208 130.546 206.491C128.819 205.112 127.004 205.258 125.077 205.426C123.052 205.596 120.963 205.771 119.007 204.192C116.972 202.545 116.787 200.305 116.582 198.139C116.402 196.116 116.212 194.027 114.609 192.041C112.011 188.835 107.194 187.705 103.575 188.021C99.3425 188.388 96.4466 190.845 93.8887 193.013C91.2469 195.256 88.7457 197.372 85.3663 196.713C83.5163 196.351 82.0832 195.359 80.7734 193.842C80.8375 192.952 80.9066 192.069 80.9732 191.193C82.6111 193.578 83.9579 194.614 85.6969 194.957C88.2622 195.45 90.2503 193.771 92.7688 191.637C95.5216 189.301 98.6469 186.652 103.425 186.235C107.502 185.88 112.961 187.187 115.963 190.907C117.909 193.314 118.129 195.793 118.323 197.979C118.506 200.014 118.647 201.62 120.095 202.791C121.542 203.963 123.092 203.8 124.929 203.647C127.006 203.472 129.369 203.277 131.624 205.088C134.342 207.248 135.684 211.338 134.751 214.574ZM156.567 194.343L156.197 194.313C146.823 193.546 137.147 192.752 133.289 188.795C130.265 185.692 129.29 182.703 128.503 180.303C127.065 175.897 126.195 173.238 113.777 173.105C107.931 173.043 104.621 173.302 102.431 173.472C97.675 173.847 97.5221 173.771 89.6041 169.95C88.2351 169.291 86.6243 168.514 84.7151 167.609C84.1996 167.362 83.7038 167.14 83.2351 166.941C83.3017 166.319 83.3683 165.707 83.4349 165.091C84.0861 165.352 84.7669 165.653 85.4699 165.986C87.3816 166.894 88.9948 167.671 90.3663 168.332C98.0253 172.032 98.0253 172.032 102.317 171.689C104.537 171.514 107.894 171.252 113.817 171.314C126.851 171.452 128.464 174.449 130.191 179.738C130.955 182.076 131.821 184.728 134.557 187.532C137.958 191.023 147.734 191.822 156.359 192.527H156.53C156.538 193.142 156.55 193.748 156.567 194.343ZM156.865 209.962C152.583 210.327 149.317 211.388 148.118 217.088C147.243 221.264 144.278 224.712 141.108 227.633C140.003 227.853 138.888 228.06 137.716 228.25C141.416 225.107 145.437 221.306 146.402 216.716C147.857 209.809 152.198 208.576 156.85 208.173C156.857 208.788 156.862 209.385 156.865 209.962Z" fill="#19817A"/>
<path d="M156.611 184.802C149.724 186.714 142.521 187.218 135.435 186.282C116.77 183.776 105.879 171.884 102.919 168.386C95.3141 159.39 91.3074 147.897 91.6712 136.122L154.394 162.952C154.571 163.774 154.755 164.627 154.944 165.51C155.161 166.526 155.365 167.483 155.565 168.406C156.039 173.948 156.387 179.501 156.611 184.802Z" fill="#311716"/>
<path d="M194.45 147.878C192.126 152.831 183.922 168.679 165.56 176.514C161.485 178.24 153.168 181.694 142.549 180.603C126.908 179.01 117.882 168.795 101.642 150.434C91.4246 138.877 90.137 134.067 91.4147 130.493C92.8059 126.601 97.2657 124.094 101.131 123.586C106.933 122.827 111.639 126.734 120.817 134.58C129.887 142.335 136.981 148.455 141.37 152.254C141.863 152.671 142.305 153.061 142.716 153.421L142.99 153.667C154.519 144.659 166.048 135.656 177.575 126.657C185.052 132.034 190.893 139.376 194.45 147.871V147.878Z" fill="#FFCBC0"/>
<path d="M143.592 163.12L141.969 163.467C140.76 157.836 140.556 154.072 141.37 152.256C141.863 152.673 142.304 153.063 142.716 153.423C142.45 154.528 142.307 157.138 143.592 163.12Z" fill="#311716"/>
<path d="M131.098 140.436C128.432 145.3 119.458 160.416 108.713 164.676C108.347 164.824 107.951 164.885 107.557 164.854C107.162 164.823 106.781 164.701 106.442 164.498C105.04 163.65 103.691 162.717 102.401 161.706C101.946 161.354 101.479 160.974 101.003 160.564C96.6341 156.827 91.5651 150.875 90.1492 142.572C89.3402 137.809 89.4265 130.486 92.0683 125.486C92.3971 124.856 92.78 124.256 93.2128 123.692C94.036 122.595 95.0936 121.695 96.3085 121.058C97.7392 120.318 100.364 119.487 106.553 121.201C109.083 121.904 111.541 122.843 113.896 124.006C114.596 124.351 115.28 124.71 115.948 125.084C118.934 126.765 121.739 128.749 124.32 131.004C124.786 131.408 125.24 131.818 125.682 132.237C127.496 133.92 129.206 135.712 130.802 137.602C131.131 137.99 131.335 138.468 131.388 138.973C131.441 139.479 131.34 139.989 131.098 140.436Z" fill="#20C5BA"/>
<path d="M131.111 137.328C124.236 129.215 116.367 123.761 107.707 121.125L107.48 121.889C115.985 124.484 123.726 129.849 130.501 137.844C130.782 138.171 130.957 138.576 131.001 139.005C131.045 139.434 130.957 139.866 130.748 140.244C128.242 144.817 119.236 160.066 108.568 164.308C108.258 164.434 107.923 164.485 107.589 164.459C107.256 164.433 106.933 164.33 106.646 164.158C103.047 161.985 95.1467 156.339 91.7674 147.081L90.9756 147.242C94.4289 156.797 102.539 162.604 106.234 164.839C106.691 165.117 107.215 165.263 107.749 165.263C108.13 165.262 108.508 165.189 108.861 165.046C119.779 160.707 128.91 145.258 131.446 140.626C131.734 140.108 131.855 139.514 131.795 138.924C131.735 138.335 131.497 137.778 131.111 137.328Z" fill="#311716"/>
<path d="M98.346 145.643C94.7175 140.69 96.2986 137.71 97.6923 135.081C98.6642 133.246 99.5842 131.514 98.8689 129.02C98.4175 127.439 97.2286 126.393 95.3391 125.91C94.2705 125.654 93.1701 125.557 92.0732 125.621C92.3932 124.998 92.7671 124.403 93.1906 123.845H93.4225C97.2088 124.035 99.7396 125.693 100.549 128.52C101.461 131.709 100.275 133.946 99.2315 135.92C97.8625 138.5 96.7821 140.537 99.7495 144.587C101.585 147.094 102.354 147.145 102.544 147.103C103.625 146.857 104.518 142.53 105.378 138.339C105.818 136.201 106.316 133.776 106.94 131.243C107.751 127.952 110.258 125.616 113.395 124.156C114.078 124.496 114.747 124.854 115.401 125.222C112.117 126.413 109.411 128.534 108.637 131.672C108.02 134.171 107.527 136.576 107.088 138.699C105.855 144.716 105.115 148.344 102.922 148.833C101.587 149.131 100.179 148.144 98.346 145.643ZM124.907 132.284C117.056 137.851 116.439 141.539 115.603 146.534C115.285 148.426 114.927 150.574 114.108 152.989C112.704 157.135 109.128 158.295 106.249 159.222C104.409 159.819 102.796 160.337 102.162 161.442C101.718 161.092 101.259 160.702 100.795 160.31C101.807 158.79 103.713 158.176 105.729 157.525C108.486 156.632 111.345 155.71 112.463 152.407C113.235 150.125 113.568 148.142 113.886 146.228C114.712 141.294 115.435 136.96 123.585 131.063C124.034 131.469 124.475 131.876 124.907 132.284Z" fill="#19817A"/>
</g>
</svg>
